<svg class="illustration" width="1155" height="700" viewBox="0 0 1155 700" fill="none" xmlns="http://www.w3.org/2000/svg">
<path fill-rule="evenodd" clip-rule="evenodd" d="M694.354 161.433C699.034 161.084 703.768 160.914 708.545 160.914C766.871 160.914 819.159 186.745 854.588 227.596L854.965 227.269L854.588 227.596C884.01 261.51 901.803 305.759 901.803 354.161C901.803 387.27 893.478 418.439 878.799 445.679L879.239 445.916L878.799 445.679C846.178 506.252 782.164 547.419 708.545 547.419C601.818 547.419 515.288 460.899 515.288 354.161C515.288 342.892 516.252 331.845 518.105 321.095C533.007 234.671 605.313 167.893 694.353 161.433L694.354 161.433ZM708.545 159.914C703.745 159.914 698.986 160.085 694.28 160.436C604.778 166.93 532.099 234.053 517.12 320.925C515.257 331.731 514.288 342.835 514.288 354.161C514.288 461.452 601.266 548.419 708.545 548.419C782.546 548.419 846.891 507.037 879.68 446.154C894.435 418.771 902.803 387.44 902.803 354.161C902.803 305.509 884.917 261.029 855.343 226.941C819.733 185.881 767.173 159.914 708.545 159.914ZM899.562 242.204C899.562 236.812 903.933 232.441 909.324 232.441C914.716 232.441 919.087 236.812 919.087 242.204C919.087 247.595 914.716 251.966 909.324 251.966C903.933 251.966 899.562 247.595 899.562 242.204ZM909.324 231.441C903.381 231.441 898.562 236.26 898.562 242.204C898.562 248.147 903.381 252.966 909.324 252.966C915.268 252.966 920.087 248.147 920.087 242.204C920.087 236.26 915.268 231.441 909.324 231.441Z" fill="#231F20"/>
<path fill-rule="evenodd" clip-rule="evenodd" d="M775.841 593.671C775.841 594.552 775.127 595.267 774.246 595.267C773.364 595.267 772.65 594.552 772.65 593.671C772.65 592.79 773.364 592.075 774.246 592.075C775.127 592.075 775.841 592.79 775.841 593.671ZM755.131 594.073C755.131 594.955 754.417 595.669 753.536 595.669C752.654 595.669 751.94 594.955 751.94 594.073C751.94 593.192 752.654 592.478 753.536 592.478C754.417 592.478 755.131 593.192 755.131 594.073ZM674.55 595.671C674.55 596.552 673.836 597.267 672.955 597.267C672.073 597.267 671.359 596.552 671.359 595.671C671.359 594.79 672.073 594.075 672.955 594.075C673.836 594.075 674.55 594.79 674.55 595.671ZM689.83 598.064C690.711 598.064 691.426 597.349 691.426 596.468C691.426 595.587 690.711 594.872 689.83 594.872C688.949 594.872 688.234 595.587 688.234 596.468C688.234 597.349 688.949 598.064 689.83 598.064ZM471.253 599.062C471.253 599.943 470.539 600.657 469.657 600.657C468.776 600.657 468.062 599.943 468.062 599.062C468.062 598.18 468.776 597.466 469.657 597.466C470.539 597.466 471.253 598.18 471.253 599.062ZM531.438 602.255C532.319 602.255 533.033 601.541 533.033 600.659C533.033 599.778 532.319 599.063 531.438 599.063C530.556 599.063 529.842 599.778 529.842 600.659C529.842 601.541 530.556 602.255 531.438 602.255ZM653.085 605.532C653.966 605.532 654.681 604.818 654.681 603.937C654.681 603.055 653.966 602.341 653.085 602.341C652.204 602.341 651.489 603.055 651.489 603.937C651.489 604.818 652.204 605.532 653.085 605.532ZM458.168 611.378C458.168 612.259 457.454 612.974 456.572 612.974C455.691 612.974 454.977 612.259 454.977 611.378C454.977 610.497 455.691 609.782 456.572 609.782C457.454 609.782 458.168 610.497 458.168 611.378ZM453.381 607.04C454.262 607.04 454.976 606.326 454.976 605.444C454.976 604.563 454.262 603.849 453.381 603.849C452.499 603.849 451.785 604.563 451.785 605.444C451.785 606.326 452.499 607.04 453.381 607.04ZM338.241 606.593C338.241 607.474 337.526 608.189 336.645 608.189C335.764 608.189 335.049 607.474 335.049 606.593C335.049 605.712 335.764 604.997 336.645 604.997C337.526 604.997 338.241 605.712 338.241 606.593ZM666.334 607.544C667.215 607.544 667.929 606.83 667.929 605.948C667.929 605.067 667.215 604.353 666.334 604.353C665.452 604.353 664.738 605.067 664.738 605.948C664.738 606.83 665.452 607.544 666.334 607.544ZM637.77 603.849C638.651 603.849 639.366 603.134 639.366 602.253C639.366 601.372 638.651 600.657 637.77 600.657C636.889 600.657 636.174 601.372 636.174 602.253C636.174 603.134 636.889 603.849 637.77 603.849ZM682.927 610.187C682.927 611.068 682.212 611.782 681.331 611.782C680.45 611.782 679.735 611.068 679.735 610.187C679.735 609.305 680.45 608.591 681.331 608.591C682.212 608.591 682.927 609.305 682.927 610.187ZM625.188 612.446C626.069 612.446 626.784 611.732 626.784 610.851C626.784 609.969 626.069 609.255 625.188 609.255C624.307 609.255 623.592 609.969 623.592 610.851C623.592 611.732 624.307 612.446 625.188 612.446ZM469.657 608.187C469.657 609.068 468.943 609.782 468.062 609.782C467.18 609.782 466.466 609.068 466.466 608.187C466.466 607.305 467.18 606.591 468.062 606.591C468.943 606.591 469.657 607.305 469.657 608.187ZM495.287 604.806C496.168 604.806 496.883 604.091 496.883 603.21C496.883 602.329 496.168 601.614 495.287 601.614C494.406 601.614 493.691 602.329 493.691 603.21C493.691 604.091 494.406 604.806 495.287 604.806ZM769.557 605.948C769.557 606.83 768.843 607.544 767.961 607.544C767.08 607.544 766.366 606.83 766.366 605.948C766.366 605.067 767.08 604.353 767.961 604.353C768.843 604.353 769.557 605.067 769.557 605.948ZM445.657 610.853C446.539 610.853 447.253 610.138 447.253 609.257C447.253 608.376 446.539 607.661 445.657 607.661C444.776 607.661 444.062 608.376 444.062 609.257C444.062 610.138 444.776 610.853 445.657 610.853ZM648.589 611.78C648.589 612.662 647.875 613.376 646.993 613.376C646.112 613.376 645.397 612.662 645.397 611.78C645.397 610.899 646.112 610.185 646.993 610.185C647.875 610.185 648.589 610.899 648.589 611.78ZM437.685 605.446C438.566 605.446 439.281 604.732 439.281 603.851C439.281 602.969 438.566 602.255 437.685 602.255C436.804 602.255 436.089 602.969 436.089 603.851C436.089 604.732 436.804 605.446 437.685 605.446ZM429.786 611.378C429.786 612.259 429.072 612.974 428.19 612.974C427.309 612.974 426.594 612.259 426.594 611.378C426.594 610.497 427.309 609.782 428.19 609.782C429.072 609.782 429.786 610.497 429.786 611.378ZM384.831 607.544C385.713 607.544 386.427 606.83 386.427 605.948C386.427 605.067 385.713 604.353 384.831 604.353C383.95 604.353 383.236 605.067 383.236 605.948C383.236 606.83 383.95 607.544 384.831 607.544ZM726.354 605.534C726.354 606.416 725.64 607.13 724.758 607.13C723.877 607.13 723.163 606.416 723.163 605.534C723.163 604.653 723.877 603.938 724.758 603.938C725.64 603.938 726.354 604.653 726.354 605.534ZM521.061 602.255C521.942 602.255 522.657 601.541 522.657 600.659C522.657 599.778 521.942 599.063 521.061 599.063C520.18 599.063 519.465 599.778 519.465 600.659C519.465 601.541 520.18 602.255 521.061 602.255ZM489.871 608.983C489.871 609.865 489.156 610.579 488.275 610.579C487.394 610.579 486.679 609.865 486.679 608.983C486.679 608.102 487.394 607.388 488.275 607.388C489.156 607.388 489.871 608.102 489.871 608.983ZM394.057 612.021C394.939 612.021 395.653 611.306 395.653 610.425C395.653 609.544 394.939 608.829 394.057 608.829C393.176 608.829 392.462 609.544 392.462 610.425C392.462 611.306 393.176 612.021 394.057 612.021ZM484.838 600.659C484.838 601.541 484.124 602.255 483.242 602.255C482.361 602.255 481.646 601.541 481.646 600.659C481.646 599.778 482.361 599.063 483.242 599.063C484.124 599.063 484.838 599.778 484.838 600.659ZM698.276 606.329C699.158 606.329 699.872 605.615 699.872 604.733C699.872 603.852 699.158 603.138 698.276 603.138C697.395 603.138 696.681 603.852 696.681 604.733C696.681 605.615 697.395 606.329 698.276 606.329ZM707.504 596.468C707.504 597.349 706.79 598.064 705.908 598.064C705.027 598.064 704.312 597.349 704.312 596.468C704.312 595.587 705.027 594.872 705.908 594.872C706.79 594.872 707.504 595.587 707.504 596.468ZM373.328 612.974C374.209 612.974 374.923 612.259 374.923 611.378C374.923 610.497 374.209 609.782 373.328 609.782C372.446 609.782 371.732 610.497 371.732 611.378C371.732 612.259 372.446 612.974 373.328 612.974ZM365.17 606.593C365.17 607.474 364.456 608.189 363.575 608.189C362.693 608.189 361.979 607.474 361.979 606.593C361.979 605.712 362.693 604.997 363.575 604.997C364.456 604.997 365.17 605.712 365.17 606.593ZM513.253 610.579C514.134 610.579 514.849 609.865 514.849 608.983C514.849 608.102 514.134 607.388 513.253 607.388C512.372 607.388 511.657 608.102 511.657 608.983C511.657 609.865 512.372 610.579 513.253 610.579ZM719.742 596.468C719.742 597.349 719.027 598.064 718.146 598.064C717.265 598.064 716.55 597.349 716.55 596.468C716.55 595.587 717.265 594.872 718.146 594.872C719.027 594.872 719.742 595.587 719.742 596.468ZM738.327 598.064C739.208 598.064 739.922 597.349 739.922 596.468C739.922 595.587 739.208 594.872 738.327 594.872C737.445 594.872 736.731 595.587 736.731 596.468C736.731 597.349 737.445 598.064 738.327 598.064ZM503.806 609.782C504.688 609.782 505.402 609.068 505.402 608.187C505.402 607.305 504.688 606.591 503.806 606.591C502.925 606.591 502.21 607.305 502.21 608.187C502.21 609.068 502.925 609.782 503.806 609.782ZM755.972 603.937C755.972 604.818 755.257 605.532 754.376 605.532C753.495 605.532 752.78 604.818 752.78 603.937C752.78 603.055 753.495 602.341 754.376 602.341C755.257 602.341 755.972 603.055 755.972 603.937ZM406.816 609.142C407.698 609.142 408.412 608.427 408.412 607.546C408.412 606.665 407.698 605.95 406.816 605.95C405.935 605.95 405.221 606.665 405.221 607.546C405.221 608.427 405.935 609.142 406.816 609.142ZM422.718 603.851C422.718 604.732 422.004 605.446 421.123 605.446C420.241 605.446 419.527 604.732 419.527 603.851C419.527 602.969 420.241 602.255 421.123 602.255C422.004 602.255 422.718 602.969 422.718 603.851ZM557.863 612.974C558.745 612.974 559.459 612.259 559.459 611.378C559.459 610.497 558.745 609.782 557.863 609.782C556.982 609.782 556.268 610.497 556.268 611.378C556.268 612.259 556.982 612.974 557.863 612.974ZM580.274 610.581C580.274 611.462 579.56 612.177 578.679 612.177C577.797 612.177 577.083 611.462 577.083 610.581C577.083 609.7 577.797 608.985 578.679 608.985C579.56 608.985 580.274 609.7 580.274 610.581ZM548.544 604.806C549.425 604.806 550.14 604.091 550.14 603.21C550.14 602.329 549.425 601.614 548.544 601.614C547.663 601.614 546.948 602.329 546.948 603.21C546.948 604.091 547.663 604.806 548.544 604.806ZM568.952 603.21C568.952 604.091 568.238 604.806 567.356 604.806C566.475 604.806 565.761 604.091 565.761 603.21C565.761 602.329 566.475 601.614 567.356 601.614C568.238 601.614 568.952 602.329 568.952 603.21ZM534.629 609.782C535.511 609.782 536.225 609.068 536.225 608.187C536.225 607.305 535.511 606.591 534.629 606.591C533.748 606.591 533.034 607.305 533.034 608.187C533.034 609.068 533.748 609.782 534.629 609.782ZM585.828 599.062C585.828 599.943 585.113 600.657 584.232 600.657C583.351 600.657 582.636 599.943 582.636 599.062C582.636 598.18 583.351 597.466 584.232 597.466C585.113 597.466 585.828 598.18 585.828 599.062ZM601.466 603.208C602.347 603.208 603.062 602.494 603.062 601.612C603.062 600.731 602.347 600.017 601.466 600.017C600.585 600.017 599.87 600.731 599.87 601.612C599.87 602.494 600.585 603.208 601.466 603.208ZM594.274 608.983C594.274 609.865 593.56 610.579 592.678 610.579C591.797 610.579 591.083 609.865 591.083 608.983C591.083 608.102 591.797 607.388 592.678 607.388C593.56 607.388 594.274 608.102 594.274 608.983ZM349.289 612.446C350.17 612.446 350.885 611.732 350.885 610.851C350.885 609.969 350.17 609.255 349.289 609.255C348.408 609.255 347.693 609.969 347.693 610.851C347.693 611.732 348.408 612.446 349.289 612.446ZM784.409 605.532C785.29 605.532 786.005 604.818 786.005 603.937C786.005 603.055 785.29 602.341 784.409 602.341C783.527 602.341 782.813 603.055 782.813 603.937C782.813 604.818 783.527 605.532 784.409 605.532ZM616.14 608.983C616.14 609.865 615.425 610.579 614.544 610.579C613.663 610.579 612.948 609.865 612.948 608.983C612.948 608.102 613.663 607.388 614.544 607.388C615.425 607.388 616.14 608.102 616.14 608.983Z" fill="#231F20"/>
<path d="M891.02 354.155C891.02 385.415 883.16 414.845 869.3 440.565C869.25 440.655 869.21 440.735 869.16 440.825C838.32 497.875 777.95 536.625 708.55 536.625C607.78 536.625 526.08 454.935 526.08 354.155C526.08 343.935 526.92 333.905 528.54 324.125C528.6 323.725 528.67 323.335 528.74 322.935C542.81 241.335 611.08 178.285 695.15 172.185C699.57 171.855 704.04 171.695 708.55 171.695C763.62 171.695 812.99 196.085 846.44 234.655C874.22 266.675 891.02 308.455 891.02 354.155Z" fill="#F0F1F1"/>
<path d="M869.16 440.826C838.32 497.876 777.95 536.626 708.55 536.626C607.78 536.626 526.08 454.936 526.08 354.156C526.08 343.936 526.92 333.906 528.54 324.126C529.04 324.226 529.54 324.356 530.04 324.516C530.04 324.516 571.26 297.746 616.21 337.046C661.16 376.336 651.56 486.166 708.96 466.826C766.35 447.486 777.18 437.436 799.61 438.976C822.03 440.526 842.39 445.166 846.14 432.786C849.32 422.286 864.7 436.186 869.16 440.826Z" fill="white"/>
<path d="M834.057 354.089C847.567 367.959 842.527 391.099 824.477 398.109C815.477 401.599 806.717 404.459 800.627 405.219C782.247 407.519 763.857 414.419 747.777 378.029C731.687 341.649 709.477 370.759 691.097 353.159C672.707 335.569 724.027 300.289 731.037 232.119C738.047 163.949 708.707 218.329 697.687 216.799C690.567 215.809 692.647 190.209 695.017 172.209C695.087 172.199 695.147 172.189 695.217 172.189C699.547 171.859 704.037 171.699 708.547 171.699C761.097 171.699 810.997 194.439 845.497 234.109C833.627 239.759 821.557 243.779 814.417 246.519C796.797 253.269 796.797 292.629 794.607 304.119C793.367 310.619 815.027 334.549 834.057 354.089Z" fill="white"/>
<path d="M750.16 245.874C753.974 245.874 757.066 245.053 757.066 244.039C757.066 243.025 753.974 242.203 750.16 242.203C746.346 242.203 743.254 243.025 743.254 244.039C743.254 245.053 746.346 245.874 750.16 245.874Z" fill="#6679F2"/>
<path d="M634.28 254.755C636.571 254.755 638.427 254.262 638.427 253.653C638.427 253.044 636.571 252.551 634.28 252.551C631.99 252.551 630.134 253.044 630.134 253.653C630.134 254.262 631.99 254.755 634.28 254.755Z" fill="#6679F2"/>
<path d="M514.378 252.32C514.048 254.844 512.754 261.401 510.93 262.649C509.106 263.897 508.885 261.832 507.487 261.977" fill="#414042"/>
<path fill-rule="evenodd" clip-rule="evenodd" d="M490.658 272.448C492.822 273.538 495.976 275.119 497.796 274.37C505.189 271.326 513.356 255.854 516.637 248.135C517.38 246.386 517.695 245.035 518.007 243.695C518.273 242.554 518.537 241.422 519.061 240.06L496.611 228.768L485.807 225.524L480.274 225.098L481.211 233.51L478.575 235.387L477.286 238.995L476.53 242.349L482.23 255.683L476.319 243.926C474.415 247.494 471.472 251.393 468.444 255.406C464.968 260.013 461.377 264.77 459.111 269.353C454.87 277.928 467.409 289.95 480.67 287.561C485.459 286.698 488.689 277.904 490.658 272.448Z" fill="white"/>
<path d="M490.658 272.448L490.883 272.001L490.379 271.748L490.188 272.278L490.658 272.448ZM497.796 274.37L497.605 273.908L497.605 273.908L497.796 274.37ZM516.637 248.135L517.097 248.33L517.097 248.33L516.637 248.135ZM518.007 243.695L518.494 243.808L518.494 243.808L518.007 243.695ZM519.061 240.06L519.528 240.24L519.691 239.817L519.286 239.613L519.061 240.06ZM496.611 228.768L496.836 228.321L496.797 228.302L496.755 228.289L496.611 228.768ZM485.807 225.524L485.951 225.045L485.899 225.03L485.846 225.026L485.807 225.524ZM480.274 225.098L480.313 224.599L479.711 224.553L479.777 225.153L480.274 225.098ZM481.211 233.51L481.501 233.917L481.741 233.747L481.708 233.455L481.211 233.51ZM478.575 235.387L478.285 234.98L478.157 235.071L478.104 235.219L478.575 235.387ZM477.286 238.995L476.815 238.827L476.805 238.856L476.798 238.886L477.286 238.995ZM476.53 242.349L476.042 242.239L476.007 242.397L476.07 242.545L476.53 242.349ZM482.23 255.683L481.784 255.907L482.69 255.486L482.23 255.683ZM476.319 243.926L476.766 243.701L476.332 242.839L475.878 243.69L476.319 243.926ZM468.444 255.406L468.045 255.105L468.045 255.105L468.444 255.406ZM459.111 269.353L459.559 269.574L459.559 269.574L459.111 269.353ZM480.67 287.561L480.759 288.053L480.759 288.053L480.67 287.561ZM490.433 272.895C491.51 273.437 492.87 274.121 494.195 274.572C495.491 275.013 496.893 275.283 497.986 274.832L497.605 273.908C496.88 274.207 495.795 274.06 494.517 273.625C493.269 273.2 491.97 272.549 490.883 272.001L490.433 272.895ZM497.986 274.832C499.932 274.031 501.887 272.434 503.764 270.412C505.647 268.385 507.481 265.898 509.178 263.277C512.573 258.035 515.448 252.21 517.097 248.33L516.177 247.939C514.545 251.778 511.696 257.549 508.339 262.734C506.66 265.326 504.861 267.761 503.031 269.732C501.195 271.709 499.357 273.187 497.605 273.908L497.986 274.832ZM517.097 248.33C517.858 246.539 518.181 245.152 518.494 243.808L517.52 243.582C517.209 244.918 516.902 246.233 516.177 247.939L517.097 248.33ZM518.494 243.808C518.76 242.668 519.017 241.566 519.528 240.24L518.595 239.88C518.057 241.278 517.786 242.441 517.52 243.582L518.494 243.808ZM519.286 239.613L496.836 228.321L496.387 229.215L518.837 240.507L519.286 239.613ZM496.755 228.289L485.951 225.045L485.663 226.003L496.468 229.247L496.755 228.289ZM485.846 225.026L480.313 224.599L480.236 225.596L485.769 226.023L485.846 225.026ZM479.777 225.153L480.714 233.565L481.708 233.455L480.771 225.042L479.777 225.153ZM480.921 233.103L478.285 234.98L478.865 235.795L481.501 233.917L480.921 233.103ZM478.104 235.219L476.815 238.827L477.757 239.164L479.046 235.556L478.104 235.219ZM476.798 238.886L476.042 242.239L477.018 242.459L477.774 239.105L476.798 238.886ZM476.07 242.545L481.77 255.879L482.69 255.486L476.99 242.152L476.07 242.545ZM482.677 255.458L476.766 243.701L475.872 244.15L481.784 255.907L482.677 255.458ZM475.878 243.69C473.996 247.217 471.081 251.082 468.045 255.105L468.843 255.707C471.864 251.704 474.833 247.771 476.76 244.161L475.878 243.69ZM468.045 255.105C464.576 259.701 460.954 264.498 458.663 269.131L459.559 269.574C461.801 265.042 465.359 260.324 468.843 255.707L468.045 255.105ZM458.663 269.131C456.396 273.714 458.658 279.097 462.996 282.943C467.356 286.809 473.958 289.278 480.759 288.053L480.582 287.069C474.122 288.233 467.823 285.886 463.659 282.194C459.472 278.482 457.585 273.566 459.559 269.574L458.663 269.131ZM480.759 288.053C482.095 287.812 483.283 287.026 484.332 285.952C485.382 284.877 486.322 283.484 487.159 281.969C488.834 278.94 490.146 275.34 491.128 272.618L490.188 272.278C489.201 275.011 487.914 278.537 486.284 281.485C485.47 282.958 484.581 284.266 483.617 285.253C482.652 286.241 481.641 286.878 480.582 287.069L480.759 288.053Z" fill="#414042"/>
<path d="M497.383 265.93C497.404 266.165 497.596 266.336 497.833 266.32C498.07 266.304 498.229 266.107 498.208 265.872C498.187 265.637 497.996 265.465 497.759 265.482C497.521 265.499 497.363 265.694 497.383 265.93Z" fill="#231F20"/>
<path d="M497.79 265.48C497.78 265.48 497.769 265.48 497.759 265.481C497.521 265.499 497.363 265.694 497.383 265.93C497.403 266.154 497.579 266.321 497.802 266.321C497.812 266.321 497.822 266.321 497.833 266.32C498.07 266.304 498.229 266.107 498.208 265.872C498.188 265.647 498.013 265.48 497.79 265.48Z" fill="#414042"/>
<path d="M499.931 268.059C499.953 268.295 500.147 268.463 500.384 268.446C500.62 268.429 500.781 268.233 500.76 267.998C500.738 267.763 500.544 267.593 500.307 267.611C500.07 267.628 499.91 267.823 499.931 268.059Z" fill="#231F20"/>
<path d="M500.342 267.609C500.33 267.609 500.319 267.61 500.307 267.611C500.07 267.628 499.91 267.823 499.931 268.059C499.952 268.284 500.13 268.447 500.352 268.447C500.362 268.447 500.373 268.447 500.384 268.446C500.62 268.43 500.781 268.233 500.76 267.998C500.739 267.774 500.563 267.609 500.342 267.609Z" fill="#414042"/>
<path d="M501.894 269.18C501.916 269.416 502.11 269.584 502.347 269.567C502.583 269.55 502.744 269.354 502.722 269.119C502.7 268.884 502.507 268.714 502.27 268.732C502.033 268.749 501.873 268.944 501.894 269.18Z" fill="#231F20"/>
<path d="M502.304 268.73C502.292 268.73 502.281 268.731 502.27 268.732C502.033 268.75 501.873 268.945 501.894 269.18C501.915 269.405 502.092 269.568 502.314 269.568C502.325 269.568 502.336 269.568 502.347 269.567C502.583 269.551 502.744 269.354 502.722 269.119C502.701 268.895 502.525 268.73 502.304 268.73Z" fill="#414042"/>
<path d="M498.249 271.25C498.27 271.486 498.465 271.654 498.701 271.638C498.938 271.621 499.099 271.424 499.077 271.189C499.055 270.954 498.862 270.784 498.625 270.802C498.388 270.82 498.228 271.015 498.249 271.25Z" fill="#231F20"/>
<path d="M498.658 270.801C498.647 270.801 498.636 270.801 498.625 270.802C498.388 270.82 498.228 271.015 498.249 271.25C498.269 271.475 498.447 271.639 498.669 271.639C498.679 271.639 498.69 271.639 498.701 271.638C498.938 271.621 499.099 271.425 499.077 271.189C499.056 270.966 498.88 270.801 498.658 270.801Z" fill="#414042"/>
<path d="M506.712 259.173C506.733 259.409 506.929 259.576 507.165 259.559C507.401 259.543 507.564 259.349 507.542 259.113C507.52 258.878 507.325 258.711 507.089 258.728C506.852 258.745 506.69 258.938 506.712 259.173Z" fill="#231F20"/>
<path d="M507.122 258.727C507.111 258.727 507.1 258.727 507.089 258.728C506.852 258.745 506.69 258.937 506.712 259.173C506.732 259.398 506.912 259.56 507.133 259.56C507.144 259.56 507.155 259.56 507.165 259.559C507.401 259.542 507.564 259.349 507.542 259.113C507.522 258.889 507.343 258.727 507.122 258.727Z" fill="#414042"/>
<path d="M497.413 261.72C497.435 261.956 497.632 262.123 497.868 262.107C498.104 262.09 498.267 261.897 498.245 261.661C498.223 261.425 498.027 261.257 497.791 261.275C497.554 261.292 497.392 261.485 497.413 261.72Z" fill="#231F20"/>
<path d="M497.825 261.273C497.813 261.273 497.802 261.274 497.791 261.275C497.554 261.292 497.392 261.485 497.413 261.72C497.434 261.945 497.614 262.108 497.836 262.108C497.846 262.108 497.857 262.108 497.868 262.107C498.104 262.09 498.267 261.896 498.245 261.661C498.224 261.437 498.046 261.273 497.825 261.273Z" fill="#414042"/>
<path d="M505.002 262.141C505.023 262.377 505.217 262.547 505.454 262.528C505.691 262.51 505.851 262.311 505.829 262.075C505.807 261.84 505.615 261.67 505.377 261.689C505.139 261.708 504.981 261.905 505.002 262.141Z" fill="#231F20"/>
<path d="M505.414 261.688C505.402 261.688 505.39 261.688 505.377 261.689C505.139 261.708 504.981 261.905 505.002 262.141C505.022 262.364 505.198 262.529 505.418 262.529C505.43 262.529 505.442 262.529 505.454 262.528C505.691 262.509 505.851 262.311 505.829 262.075C505.809 261.852 505.635 261.688 505.414 261.688Z" fill="#414042"/>
<path d="M501.317 259.596C501.339 259.831 501.533 260 501.77 259.981C502.006 259.963 502.166 259.767 502.144 259.531C502.121 259.296 501.928 259.127 501.691 259.146C501.454 259.164 501.295 259.361 501.317 259.596Z" fill="#231F20"/>
<path d="M501.727 259.145C501.715 259.145 501.703 259.145 501.691 259.146C501.454 259.165 501.295 259.361 501.317 259.596C501.338 259.819 501.514 259.983 501.735 259.983C501.746 259.983 501.758 259.982 501.77 259.981C502.006 259.963 502.166 259.767 502.144 259.531C502.123 259.308 501.947 259.145 501.727 259.145Z" fill="#414042"/>
<path d="M500.898 262.979C500.919 263.215 501.115 263.384 501.352 263.368C501.588 263.352 501.751 263.157 501.728 262.921C501.706 262.685 501.513 262.516 501.275 262.532C501.038 262.549 500.877 262.743 500.898 262.979Z" fill="#231F20"/>
<path d="M501.307 262.531C501.297 262.531 501.286 262.531 501.275 262.532C501.038 262.549 500.877 262.743 500.898 262.979C500.918 263.204 501.098 263.369 501.321 263.369C501.331 263.369 501.341 263.368 501.352 263.368C501.588 263.352 501.751 263.157 501.728 262.921C501.707 262.696 501.53 262.531 501.307 262.531Z" fill="#414042"/>
<path d="M502.868 265.134C502.89 265.37 503.083 265.54 503.32 265.521C503.558 265.502 503.717 265.304 503.695 265.068C503.674 264.832 503.481 264.662 503.243 264.681C503.006 264.7 502.847 264.898 502.868 265.134Z" fill="#231F20"/>
<path d="M503.279 264.68C503.268 264.68 503.255 264.68 503.243 264.681C503.006 264.701 502.847 264.898 502.868 265.134C502.888 265.358 503.063 265.522 503.284 265.522C503.296 265.522 503.308 265.522 503.32 265.521C503.558 265.502 503.717 265.304 503.696 265.068C503.675 264.845 503.5 264.68 503.279 264.68Z" fill="#414042"/>
<path d="M503.826 266.88C503.847 267.116 504.04 267.286 504.278 267.267C504.515 267.248 504.675 267.05 504.653 266.814C504.631 266.578 504.439 266.408 504.201 266.427C503.963 266.446 503.804 266.644 503.826 266.88Z" fill="#231F20"/>
<path d="M504.237 266.426C504.225 266.426 504.213 266.426 504.201 266.427C503.963 266.446 503.804 266.644 503.826 266.88C503.846 267.104 504.021 267.269 504.242 267.269C504.254 267.269 504.266 267.268 504.278 267.267C504.515 267.248 504.675 267.05 504.653 266.814C504.632 266.591 504.458 266.426 504.237 266.426Z" fill="#414042"/>
<path d="M495.896 269.595C495.918 269.831 496.114 269.996 496.35 269.979C496.585 269.962 496.749 269.769 496.727 269.534C496.705 269.298 496.51 269.132 496.274 269.15C496.038 269.168 495.875 269.359 495.896 269.595Z" fill="#231F20"/>
<path d="M496.308 269.148C496.297 269.148 496.285 269.149 496.274 269.15C496.038 269.168 495.875 269.359 495.896 269.595C495.917 269.82 496.096 269.98 496.317 269.98C496.327 269.98 496.339 269.98 496.35 269.979C496.585 269.962 496.749 269.77 496.727 269.534C496.707 269.31 496.529 269.148 496.308 269.148Z" fill="#414042"/>
<path d="M506.958 254.703C507.091 255.513 504.624 256.506 503.888 256.384C498.415 255.474 501.09 246.348 505.672 245.905C509.445 245.54 510.507 248.56 508.569 251.058C508.483 251.169 508.385 251.264 508.312 251.384" fill="white"/>
<path d="M506.958 254.703C507.091 255.513 504.624 256.506 503.888 256.384C498.415 255.474 501.09 246.348 505.672 245.905C509.445 245.54 510.507 248.56 508.569 251.058C508.483 251.169 508.385 251.264 508.312 251.384" stroke="#414042" stroke-miterlimit="10" stroke-linecap="round"/>
<path d="M507.127 247.64C506.363 247.637 505.6 247.633 504.836 247.63Z" fill="white"/>
<path d="M507.127 247.64C506.363 247.637 505.6 247.633 504.836 247.63" stroke="#414042" stroke-width="0.75" stroke-miterlimit="10" stroke-linecap="round"/>
<path d="M507.487 250.029C506.945 250.026 506.403 250.025 505.861 250.021Z" fill="white"/>
<path d="M507.487 250.029C506.945 250.026 506.403 250.025 505.861 250.021" stroke="#414042" stroke-width="0.75" stroke-miterlimit="10" stroke-linecap="round"/>
<path fill-rule="evenodd" clip-rule="evenodd" d="M531.15 237.147C532.005 236.704 532.838 236.272 534.775 234.186C538.235 230.46 542.509 219.271 543.995 213.2C540.282 216.313 536.546 219.391 531.336 219.526C531.793 218.12 532.253 216.714 532.714 215.306C533.304 213.5 533.896 211.693 534.482 209.886C526.901 214.005 516.272 211.008 508.552 208.831L508.521 208.822C507.841 208.63 507.072 208.294 506.381 207.992C505.858 207.764 505.379 207.555 505.016 207.442C498.736 205.488 493.685 205.38 490.129 212.09C489.645 213.003 488.224 212.499 486.404 211.854C485.276 211.454 483.995 211 482.69 210.796C481.006 210.533 478.529 216.843 476.466 223.779C476.247 224.354 465.756 251.912 468.599 256.263C471.471 260.659 483.967 267.022 491.627 262.809C499.286 258.596 500.612 255.794 500.762 252.32C500.897 249.188 503.228 245.524 506.674 245.875C507.569 245.967 508.28 246.33 508.842 246.819C508.855 248.157 508.879 249.372 508.921 250.195C508.96 250.956 509.829 252.894 510.572 252.158C511.503 251.237 512.861 249.841 514.134 248.493C514.96 247.798 515.816 246.929 516.535 245.88L516.537 245.877C517.592 245.815 518.569 245.846 519.546 245.876C520.512 245.906 521.479 245.936 522.52 245.877C526.773 246.072 528.038 242.961 528.548 239.02C529.794 237.85 530.479 237.495 531.15 237.147Z" fill="#414042"/>
<path d="M488.027 279.073L486.038 275.79C484.891 273.896 485.149 271.469 486.669 269.859L491.086 272.097L488.027 279.073Z" fill="#414042"/>
<path d="M391.769 384.316L352.733 450.711L267.244 511.546" stroke="#414042" stroke-width="27" stroke-miterlimit="10"/>
<path fill-rule="evenodd" clip-rule="evenodd" d="M431.044 418.91L440.42 402.064C440.42 402.064 422.316 393.083 411.033 386.704C399.751 380.326 382.978 368.915 382.978 368.915L373.252 390.937L406.221 405.397L431.044 418.91Z" fill="#414042"/>
<path d="M334.86 534.202L395.626 469.606L426.61 397.793" stroke="#414042" stroke-width="27" stroke-miterlimit="10"/>
<path opacity="0.46" d="M464.825 298.288C470.175 300.741 472.372 307.307 469.368 312.368C469.349 312.401 469.329 312.434 469.31 312.466L434.27 371.326C429.4 379.506 421.8 385.316 413.15 388.296C405.37 383.766 397.7 378.966 391.43 374.846C385.63 371.026 381.04 367.786 378.67 365.876C367.95 357.216 430.58 282.586 430.58 282.586L452.89 292.816L464.825 298.288Z" fill="#414042"/>
<path d="M738.314 322.22C738.823 322.171 739.135 322.578 739.68 323.241C738.907 319.949 737.341 314.265 738.844 312.878C739.178 312.57 742.017 311.4 742.903 314.28C743.463 309.107 744.877 302.259 748.445 301.985C753.067 301.629 751.651 312.682 750.911 317.066C751.935 315.498 752.013 314.431 752.89 314.096C753.821 313.741 755.991 315.055 755.571 317.05C755.157 319.023 754.997 321.587 754.495 323.74C755.469 322.648 755.948 321.855 756.779 321.925C757.979 322.025 758.7 323.813 758.831 324.14C759.993 327.023 758.579 330.728 756.148 333.002C753.868 335.135 751.018 335.704 749.073 335.825V341.983H746.857V335.796C742.235 335.412 736.989 332.585 736.104 328.423C735.503 325.598 736.952 322.351 738.314 322.22Z" fill="#F0F1F1"/>
<path d="M734.496 321.318C733.987 321.269 733.675 321.676 733.13 322.339C733.903 319.047 735.469 313.363 733.965 311.976C733.632 311.668 730.792 310.498 729.907 313.378C729.347 308.205 727.933 301.357 724.365 301.083C719.743 300.727 721.159 311.779 721.899 316.164C720.875 314.596 720.797 313.529 719.92 313.194C718.988 312.838 716.819 314.152 717.238 316.148C717.652 318.12 717.813 320.684 718.315 322.838C717.341 321.745 716.862 320.953 716.03 321.022C714.831 321.122 714.11 322.911 713.978 323.238C712.817 326.12 714.23 329.826 716.662 332.1C718.942 334.232 721.791 334.802 723.737 334.923V341.081H725.953V334.894C730.575 334.509 735.821 331.683 736.706 327.521C737.307 324.696 735.857 321.449 734.496 321.318Z" fill="#F0F1F1"/>
<path d="M745.255 328.216C744.746 328.167 744.434 328.574 743.889 329.237C744.662 325.945 746.228 320.261 744.724 318.874C744.391 318.566 741.551 317.396 740.666 320.276C740.106 315.103 738.692 308.256 735.124 307.981C730.502 307.626 731.918 318.678 732.658 323.062C731.633 321.494 731.556 320.428 730.679 320.093C729.747 319.737 727.578 321.051 727.997 323.047C728.411 325.019 728.572 327.583 729.074 329.736C728.1 328.644 727.621 327.851 726.789 327.921C725.59 328.021 724.869 329.809 724.737 330.136C723.575 333.019 724.989 336.724 727.42 338.998C729.701 341.131 732.55 341.7 734.496 341.821V347.98H736.711V341.792C741.333 341.408 746.579 338.581 747.465 334.419C748.065 331.595 746.616 328.347 745.255 328.216Z" fill="#D0D2D3"/>
<path d="M647.981 481.579C648.491 481.53 648.803 481.938 649.348 482.6C648.575 479.309 647.009 473.624 648.512 472.237C648.846 471.93 651.685 470.76 652.571 473.64C653.13 468.467 654.545 461.619 658.113 461.344C662.734 460.989 661.319 472.041 660.578 476.425C661.603 474.858 661.681 473.791 662.558 473.456C663.489 473.1 665.658 474.414 665.239 476.41C664.825 478.382 664.665 480.946 664.163 483.1C665.136 482.007 665.615 481.214 666.447 481.284C667.647 481.384 668.367 483.173 668.499 483.499C669.661 486.382 668.247 490.088 665.816 492.361C663.536 494.494 660.686 495.063 658.74 495.185V501.343H656.525V495.155C651.903 494.771 646.657 491.945 645.772 487.783C645.171 484.958 646.62 481.71 647.981 481.579Z" fill="#F0F1F1"/>
<path d="M622.138 473.642C621.629 473.593 621.317 474 620.772 474.663C621.545 471.371 623.111 465.687 621.607 464.3C621.274 463.992 618.434 462.822 617.549 465.702C616.989 460.529 615.575 453.681 612.007 453.407C607.385 453.051 608.801 464.104 609.541 468.488C608.516 466.92 608.439 465.853 607.562 465.518C606.63 465.162 604.461 466.476 604.88 468.472C605.294 470.445 605.455 473.008 605.957 475.162C604.983 474.07 604.504 473.277 603.672 473.346C602.473 473.447 601.752 475.235 601.62 475.562C600.458 478.444 601.872 482.15 604.303 484.424C606.584 486.557 609.433 487.126 611.379 487.247V493.405H613.594V487.218C618.216 486.833 623.462 484.007 624.348 479.845C624.948 477.02 623.499 473.773 622.138 473.642Z" fill="#F0F1F1"/>
<path d="M643.75 464.333C643.241 464.284 642.929 464.692 642.384 465.354C643.157 462.062 644.723 456.378 643.219 454.991C642.886 454.684 640.046 453.513 639.161 456.393C638.601 451.221 637.187 444.373 633.619 444.098C628.997 443.743 630.413 454.795 631.153 459.179C630.129 457.611 630.051 456.545 629.174 456.21C628.242 455.854 626.073 457.168 626.492 459.164C626.907 461.136 627.067 463.7 627.569 465.854C626.595 464.761 626.116 463.968 625.284 464.038C624.085 464.138 623.364 465.927 623.233 466.253C622.071 469.136 623.485 472.842 625.916 475.115C628.196 477.248 631.045 477.817 632.991 477.938V484.097H635.207V477.909C639.829 477.525 645.075 474.698 645.96 470.537C646.561 467.712 645.111 464.464 643.75 464.333Z" fill="#F0F1F1"/>
<path d="M618.265 277.633H660.775" stroke="#231F20" stroke-miterlimit="10" stroke-linecap="round"/>
<path d="M595.005 277.633H615.179" stroke="#231F20" stroke-miterlimit="10" stroke-linecap="round"/>
<path d="M596.68 282.582H639.191" stroke="#231F20" stroke-miterlimit="10" stroke-linecap="round"/>
<path d="M573.421 282.582H593.594" stroke="#231F20" stroke-miterlimit="10" stroke-linecap="round"/>
<path d="M780.756 215.797H764.706V244.853H780.756V215.797Z" fill="#F0F1F1"/>
<path d="M790.646 228.801H774.596V244.851H790.646V228.801Z" fill="#F0F1F1"/>
<path d="M771.515 217.824H767.3V226.011H771.515V217.824Z" fill="white"/>
<path d="M778.162 217.824H773.947V226.011H778.162V217.824Z" fill="white"/>
<path d="M771.515 228.362H767.3V236.55H771.515V228.362Z" fill="white"/>
<path d="M778.162 228.362H773.947V236.55H778.162V228.362Z" fill="white"/>
<path d="M769.4 440.465H753.349V491.998H769.4V440.465Z" fill="#F0F1F1"/>
<path d="M779.289 475.949H763.239V492H779.289V475.949Z" fill="#F0F1F1"/>
<path d="M756.312 465.133H740.262V492H756.312V465.133Z" fill="#F0F1F1"/>
<path d="M760.158 464.969H755.943V473.156H760.158V464.969Z" fill="white"/>
<path d="M766.805 464.969H762.59V473.156H766.805V464.969Z" fill="white"/>
<path d="M760.158 475.507H755.943V483.694H760.158V475.507Z" fill="white"/>
<path d="M766.805 475.507H762.59V483.694H766.805V475.507Z" fill="white"/>
<path d="M760.158 443.625H755.943V451.812H760.158V443.625Z" fill="white"/>
<path d="M766.805 443.625H762.59V451.812H766.805V443.625Z" fill="white"/>
<path d="M760.158 454.163H755.943V462.35H760.158V454.163Z" fill="white"/>
<path d="M766.805 454.163H762.59V462.35H766.805V454.163Z" fill="white"/>
<path d="M604.629 386.492H588.578V438.026H604.629V386.492Z" fill="#F0F1F1"/>
<path d="M614.518 421.977H598.468V438.027H614.518V421.977Z" fill="#F0F1F1"/>
<path d="M591.542 411.16H575.491V438.027H591.542V411.16Z" fill="#F0F1F1"/>
<path d="M595.388 410.996H591.172V419.183H595.388V410.996Z" fill="white"/>
<path d="M602.035 410.996H597.819V419.183H602.035V410.996Z" fill="white"/>
<path d="M595.388 421.534H591.172V429.721H595.388V421.534Z" fill="white"/>
<path d="M602.035 421.534H597.819V429.721H602.035V421.534Z" fill="white"/>
<path d="M595.388 389.652H591.172V397.84H595.388V389.652Z" fill="white"/>
<path d="M602.035 389.652H597.819V397.84H602.035V389.652Z" fill="white"/>
<path d="M595.388 400.19H591.172V408.378H595.388V400.19Z" fill="white"/>
<path d="M602.035 400.19H597.819V408.378H602.035V400.19Z" fill="white"/>
<path d="M878.91 516.817C881.399 516.817 883.416 514.799 883.416 512.311C883.416 509.822 881.399 507.805 878.91 507.805C876.422 507.805 874.404 509.822 874.404 512.311C874.404 514.799 876.422 516.817 878.91 516.817Z" fill="#F0F1F1"/>
<path d="M548.501 123.087C550.99 123.087 553.007 121.069 553.007 118.58C553.007 116.092 550.99 114.074 548.501 114.074C546.012 114.074 543.995 116.092 543.995 118.58C543.995 121.069 546.012 123.087 548.501 123.087Z" stroke="#231F20" stroke-miterlimit="10"/>
<path d="M830.726 132.1C833.214 132.1 835.232 130.083 835.232 127.594C835.232 125.105 833.214 123.088 830.726 123.088C828.237 123.088 826.22 125.105 826.22 127.594C826.22 130.083 828.237 132.1 830.726 132.1Z" fill="#231F20"/>
<path d="M901.402 349.167C901.86 349.167 902.231 348.796 902.231 348.338C902.231 347.879 901.86 347.508 901.402 347.508C900.943 347.508 900.572 347.879 900.572 348.338C900.572 348.796 900.943 349.167 901.402 349.167Z" fill="white"/>
<path d="M908.263 353.922C908.722 353.922 909.093 353.551 909.093 353.092C909.093 352.634 908.722 352.263 908.263 352.263C907.805 352.263 907.433 352.634 907.433 353.092C907.433 353.551 907.805 353.922 908.263 353.922Z" fill="white"/>
<path d="M901.814 356.604C902.272 356.604 902.644 356.232 902.644 355.774C902.644 355.316 902.272 354.944 901.814 354.944C901.356 354.944 900.984 355.316 900.984 355.774C900.984 356.232 901.356 356.604 901.814 356.604Z" fill="white"/>
<path d="M929.61 394.104C930.069 394.104 930.44 393.732 930.44 393.274C930.44 392.816 930.069 392.444 929.61 392.444C929.152 392.444 928.781 392.816 928.781 393.274C928.781 393.732 929.152 394.104 929.61 394.104Z" fill="white"/>
<path d="M920.686 379.487C921.144 379.487 921.516 379.115 921.516 378.657C921.516 378.199 921.144 377.827 920.686 377.827C920.228 377.827 919.856 378.199 919.856 378.657C919.856 379.115 920.228 379.487 920.686 379.487Z" fill="white"/>
<path d="M916.006 369.593C916.464 369.593 916.836 369.222 916.836 368.763C916.836 368.305 916.464 367.934 916.006 367.934C915.548 367.934 915.176 368.305 915.176 368.763C915.176 369.222 915.548 369.593 916.006 369.593Z" fill="white"/>
<path d="M920.686 389.922C921.144 389.922 921.516 389.551 921.516 389.092C921.516 388.634 921.144 388.263 920.686 388.263C920.228 388.263 919.856 388.634 919.856 389.092C919.856 389.551 920.228 389.922 920.686 389.922Z" fill="white"/>
<path d="M925.158 374.316C925.854 374.316 926.419 373.752 926.419 373.056C926.419 372.359 925.854 371.795 925.158 371.795C924.462 371.795 923.898 372.359 923.898 373.056C923.898 373.752 924.462 374.316 925.158 374.316Z" fill="white"/>
<path d="M929.61 384.037C930.307 384.037 930.871 383.473 930.871 382.776C930.871 382.08 930.307 381.516 929.61 381.516C928.914 381.516 928.35 382.08 928.35 382.776C928.35 383.473 928.914 384.037 929.61 384.037Z" fill="white"/>
<path d="M912.185 401.683C912.881 401.683 913.445 401.119 913.445 400.423C913.445 399.727 912.881 399.162 912.185 399.162C911.489 399.162 910.924 399.727 910.924 400.423C910.924 401.119 911.489 401.683 912.185 401.683Z" fill="white"/>
<path d="M912.185 360.784C912.881 360.784 913.445 360.22 913.445 359.523C913.445 358.827 912.881 358.263 912.185 358.263C911.489 358.263 910.924 358.827 910.924 359.523C910.924 360.22 911.489 360.784 912.185 360.784Z" fill="white"/>
<path d="M923.307 400.423C924.003 400.423 924.568 399.858 924.568 399.162C924.568 398.466 924.003 397.901 923.307 397.901C922.611 397.901 922.047 398.466 922.047 399.162C922.047 399.858 922.611 400.423 923.307 400.423Z" fill="white"/>
<path d="M278.48 411.615H231.359C228.727 411.615 226.594 409.481 226.594 406.85V293.547C226.594 290.915 228.727 288.781 231.359 288.781H278.48C281.112 288.781 283.245 290.915 283.245 293.547V406.85C283.245 409.481 281.112 411.615 278.48 411.615Z" fill="#F0F1F1"/>
<path d="M261.033 403.73H248.806C248.33 403.73 247.944 403.344 247.944 402.868V402.682C247.944 402.206 248.33 401.82 248.806 401.82H261.033C261.509 401.82 261.895 402.206 261.895 402.682V402.868C261.895 403.344 261.509 403.73 261.033 403.73Z" fill="#CECECE"/>
<path d="M280.011 207.616H229.828C227.766 207.616 226.094 205.944 226.094 203.882V203.074C226.094 201.012 227.766 199.34 229.828 199.34H280.011C282.073 199.34 283.745 201.012 283.745 203.074V203.882C283.745 205.944 282.073 207.616 280.011 207.616Z" fill="#F0F1F1"/>
<path d="M237.128 186.197H229.315C228.601 186.197 228.022 185.618 228.022 184.904V184.625C228.022 183.911 228.601 183.332 229.315 183.332H237.128C237.842 183.332 238.42 183.911 238.42 184.625V184.904C238.42 185.618 237.842 186.197 237.128 186.197Z" fill="#F0F1F1"/>
<path d="M280.524 186.197H272.711C271.997 186.197 271.418 185.618 271.418 184.904V184.625C271.418 183.911 271.997 183.332 272.711 183.332H280.524C281.238 183.332 281.817 183.911 281.817 184.625V184.904C281.817 185.618 281.238 186.197 280.524 186.197Z" fill="#F0F1F1"/>
<path d="M230.94 310.176H278.899" stroke="#414042" stroke-width="0.5" stroke-miterlimit="10" stroke-linecap="round"/>
<path d="M230.94 281.562H278.899" stroke="#414042" stroke-width="0.5" stroke-miterlimit="10" stroke-linecap="round"/>
<path d="M283.38 335.492C282.481 335.781 281.522 335.937 280.527 335.937H229.312C228.366 335.937 227.453 335.796 226.593 335.534" stroke="#BBBDBF" stroke-miterlimit="10"/>
<path d="M226.593 335.535C222.777 334.371 220 330.823 220 326.626V190.523C220 185.38 224.169 181.211 229.312 181.211H280.527C285.67 181.211 289.839 185.38 289.839 190.523V326.626C289.839 330.774 287.127 334.288 283.38 335.493" stroke="#231F20" stroke-miterlimit="10"/>
<path d="M265.451 186.785H244.388C242.56 186.785 241.079 185.303 241.079 183.476V180.348H268.76V183.476C268.76 185.303 267.279 186.785 265.451 186.785Z" fill="#F0F1F1"/>
<path d="M236.678 327.158H231.158C230.182 327.158 229.392 326.367 229.392 325.392V319.871C229.392 318.896 230.182 318.105 231.158 318.105H236.678C237.653 318.105 238.444 318.896 238.444 319.871V325.392C238.444 326.367 237.653 327.158 236.678 327.158Z" fill="white" stroke="#414042" stroke-width="0.5" stroke-miterlimit="10" stroke-linecap="round"/>
<path d="M250.679 327.158H245.159C244.183 327.158 243.393 326.367 243.393 325.392V319.871C243.393 318.896 244.183 318.105 245.159 318.105H250.679C251.654 318.105 252.445 318.896 252.445 319.871V325.392C252.445 326.367 251.654 327.158 250.679 327.158Z" fill="white" stroke="#414042" stroke-width="0.5" stroke-miterlimit="10" stroke-linecap="round"/>
<path d="M264.68 327.158H259.16C258.185 327.158 257.394 326.367 257.394 325.392V319.871C257.394 318.896 258.185 318.105 259.16 318.105H264.68C265.656 318.105 266.446 318.896 266.446 319.871V325.392C266.446 326.367 265.656 327.158 264.68 327.158Z" fill="white" stroke="#414042" stroke-width="0.5" stroke-miterlimit="10" stroke-linecap="round"/>
<path d="M278.681 327.158H273.161C272.186 327.158 271.395 326.367 271.395 325.392V319.871C271.395 318.896 272.186 318.105 273.161 318.105H278.681C279.657 318.105 280.447 318.896 280.447 319.871V325.392C280.447 326.367 279.657 327.158 278.681 327.158Z" fill="white" stroke="#414042" stroke-width="0.5" stroke-miterlimit="10" stroke-linecap="round"/>
<path fill-rule="evenodd" clip-rule="evenodd" d="M750.158 204.07C743.905 204.07 738.837 209.139 738.837 215.396C738.837 219.475 750.158 241.216 750.158 241.216C750.158 241.216 761.484 218.772 761.484 215.396C761.484 209.139 756.416 204.07 750.158 204.07ZM750.158 220.773C746.717 220.773 743.927 217.982 743.927 214.541C743.927 211.1 746.717 208.31 750.158 208.31C753.604 208.31 756.394 211.1 756.394 214.541C756.394 217.982 753.604 220.773 750.158 220.773ZM634.279 229.652C630.525 229.652 627.481 232.696 627.481 236.453C627.481 238.902 634.279 251.957 634.279 251.957C634.279 251.957 641.08 238.48 641.08 236.453C641.08 232.696 638.037 229.652 634.279 229.652ZM634.279 239.681C632.213 239.681 630.538 238.006 630.538 235.94C630.538 233.874 632.213 232.198 634.279 232.198C636.348 232.198 638.024 233.874 638.024 235.94C638.024 238.006 636.348 239.681 634.279 239.681ZM780.69 307.627H798.85C803.246 307.627 806.809 304.063 806.809 299.668C806.809 295.337 803.35 291.814 799.044 291.711V291.709C799.044 287.313 795.481 283.75 791.086 283.75C786.69 283.75 783.127 287.313 783.127 291.709L780.69 291.709C776.294 291.709 772.731 295.272 772.731 299.668C772.731 304.063 776.294 307.627 780.69 307.627ZM688.072 412.444C688.072 398.024 699.752 386.344 714.162 386.344C728.582 386.344 740.262 398.024 740.262 412.444C740.262 420.224 714.162 471.944 714.162 471.944C714.162 471.944 688.072 421.843 688.072 412.444ZM699.802 410.474C699.802 418.404 706.232 424.834 714.162 424.834C722.102 424.834 728.532 418.404 728.532 410.474C728.532 402.544 722.102 396.114 714.162 396.114C706.232 396.114 699.802 402.544 699.802 410.474ZM558.53 401.789C552.277 401.789 547.209 406.858 547.209 413.115C547.209 417.194 558.53 438.934 558.53 438.934C558.53 438.934 569.856 416.491 569.856 413.115C569.856 406.858 564.788 401.789 558.53 401.789ZM558.53 418.491C555.089 418.491 552.299 415.701 552.299 412.26C552.299 408.819 555.089 406.029 558.53 406.029C561.976 406.029 564.766 408.819 564.766 412.26C564.766 415.701 561.976 418.491 558.53 418.491ZM558.532 443.593C562.347 443.593 565.439 442.771 565.439 441.758C565.439 440.744 562.347 439.922 558.532 439.922C554.718 439.922 551.626 440.744 551.626 441.758C551.626 442.771 554.718 443.593 558.532 443.593ZM714.167 482.679C722.957 482.679 730.082 480.785 730.082 478.449C730.082 476.113 722.957 474.219 714.167 474.219C705.377 474.219 698.252 476.113 698.252 478.449C698.252 480.785 705.377 482.679 714.167 482.679ZM562.846 497.14C562.846 486.679 571.326 478.199 581.787 478.199C592.247 478.199 600.727 486.679 600.727 497.14V497.146C610.975 497.392 619.206 505.775 619.206 516.081C619.206 526.542 610.726 535.022 600.265 535.022H557.047C546.586 535.022 538.106 526.542 538.106 516.081C538.106 505.621 546.586 497.141 557.047 497.141L562.846 497.14ZM412.277 297.152C414.54 297.097 416.794 297.051 418.864 297.015C401.292 319.161 370.947 359.637 378.67 365.875C381.04 367.785 385.63 371.025 391.43 374.846C397.7 378.966 405.37 383.765 413.15 388.296C430.85 398.596 449.13 407.515 452.82 403.986C457.703 399.312 486.725 359.728 495.854 333.816L496.472 334.147L518.089 364.585L522.75 371.148L530.75 372.05L587.974 378.497L592.004 342.723L542.779 337.177L524.996 312.137L524.716 311.743L524.415 311.364C522.666 309.162 520.649 307.197 518.416 305.512C511.323 288.654 472.735 269.514 460.919 267C452.251 265.156 442.422 263.204 437.63 262.262C426.305 260.037 396.631 256.981 384.487 265.317L384.36 265.405L340.844 296.385L361.723 325.712L401.308 297.53L401.399 297.525C404.333 297.374 408.251 297.249 412.277 297.152ZM311.63 591.559C309.854 591.271 308.816 590.562 307.747 589.831C307.456 589.631 307.161 589.43 306.849 589.236C318.743 580.171 318.902 552.582 312.788 542.059C310.996 538.975 310.189 538.716 308.281 538.105C307.553 537.872 306.665 537.587 305.5 537.075C305.999 536.912 306.363 536.751 306.72 536.594C307.183 536.39 307.637 536.19 308.362 535.995C308.836 535.867 309.315 535.736 309.797 535.604L309.846 535.59L309.853 535.588C313.929 534.469 318.267 533.278 322.553 533.577C322.559 533.577 322.565 533.578 322.571 533.579C322.579 533.58 322.586 533.581 322.594 533.582L322.608 533.585L322.627 533.589C322.637 533.591 322.646 533.593 322.656 533.596L322.679 533.602L322.681 533.602C322.746 533.618 322.812 533.635 322.852 533.626C322.936 533.608 323.022 533.598 323.109 533.595C323.767 531.985 324.704 530.059 325.303 530.392C326.309 530.951 328.53 532.363 327.489 533.158C326.978 533.548 326.027 534.317 325.193 534.999C325.399 535.659 325.679 537.474 325.669 538.282C325.666 538.524 325.651 538.782 325.636 539.054C325.555 540.518 325.451 542.384 326.964 544.329C328.156 545.86 329.127 546.1 330.26 546.38C331.136 546.597 332.11 546.838 333.359 547.718C333.564 550.594 331.405 556.118 329.234 561.674C327.387 566.4 325.531 571.149 325.113 574.311C324.064 582.257 320.195 592.945 311.63 591.559ZM260.458 512.361C260.595 511.595 260.62 509.865 260.537 509.125C261.424 508.591 262.398 508.011 262.931 507.713C264.074 507.074 262.076 505.362 261.16 504.666C258.082 507.923 253.573 507.609 249.062 507.294C247.797 507.206 246.532 507.117 245.298 507.108C244.782 507.161 244.269 507.214 243.761 507.264C243.014 507.337 242.534 507.46 242.044 507.585L242.042 507.586L242.042 507.586C241.664 507.682 241.28 507.781 240.761 507.86C241.825 508.556 242.655 508.983 243.335 509.332C245.116 510.248 245.87 510.636 247.132 513.973C251.436 525.356 246.932 552.478 233.711 559.468C234.194 559.797 234.602 560.099 234.981 560.38L234.982 560.38C236.044 561.166 236.876 561.783 238.475 562.322C246.696 565.095 251.657 555.476 253.997 547.81C254.927 544.759 257.538 540.379 260.135 536.021C263.189 530.896 266.226 525.801 266.495 522.93C265.408 521.857 264.487 521.46 263.658 521.103C262.586 520.64 261.668 520.244 260.743 518.538C259.569 516.372 259.978 514.547 260.299 513.116C260.359 512.851 260.415 512.599 260.458 512.361ZM253.989 229.766C249.709 229.766 246.24 233.235 246.24 237.518C246.24 240.31 253.989 255.192 253.989 255.192C253.989 255.192 261.742 239.829 261.742 237.518C261.742 233.235 258.272 229.766 253.989 229.766ZM253.989 241.198C251.634 241.198 249.724 239.288 249.724 236.933C249.724 234.578 251.634 232.668 253.989 232.668C256.348 232.668 258.257 234.578 258.257 236.933C258.257 239.288 256.348 241.198 253.989 241.198ZM269.728 267.321H240.111C239.072 267.321 238.23 266.479 238.23 265.44V265.033C238.23 263.995 239.072 263.152 240.111 263.152H269.728C270.767 263.152 271.609 263.995 271.609 265.033V265.44C271.609 266.479 270.767 267.321 269.728 267.321ZM258.718 257.124C258.718 257.818 256.601 258.381 253.991 258.381C251.38 258.381 249.263 257.818 249.263 257.124C249.263 256.43 251.38 255.868 253.991 255.868C256.601 255.868 258.718 256.43 258.718 257.124ZM277.018 350.954H236.69C235.651 350.954 234.809 350.112 234.809 349.073V348.666C234.809 347.627 235.651 346.785 236.69 346.785H277.018C278.056 346.785 278.899 347.627 278.899 348.666V349.073C278.899 350.112 278.056 350.954 277.018 350.954ZM250.544 386.388H225.053C223.231 386.388 221.755 384.911 221.755 383.09V382.376C221.755 380.555 223.231 379.078 225.053 379.078H250.544C252.365 379.078 253.842 380.555 253.842 382.376V383.09C253.842 384.911 252.365 386.388 250.544 386.388ZM236.69 358.676H266.306C267.345 358.676 268.188 357.834 268.188 356.795V356.388C268.188 355.349 267.345 354.507 266.306 354.507H236.69C235.651 354.507 234.809 355.349 234.809 356.388V356.795C234.809 357.834 235.651 358.676 236.69 358.676ZM266.306 366.398H236.69C235.651 366.398 234.809 365.556 234.809 364.517V364.11C234.809 363.071 235.651 362.229 236.69 362.229H266.306C267.345 362.229 268.188 363.071 268.188 364.11V364.517C268.188 365.556 267.345 366.398 266.306 366.398Z" fill="#0ed2f7"/>
<path fill-rule="evenodd" clip-rule="evenodd" d="M415.652 218.573C415.652 221.061 413.635 223.079 411.146 223.079C408.657 223.079 406.64 221.061 406.64 218.573C406.64 216.084 408.657 214.066 411.146 214.066C413.635 214.066 415.652 216.084 415.652 218.573ZM231.359 274.344H278.48C281.112 274.344 283.245 272.211 283.245 269.579V220.551C283.245 217.919 281.112 215.785 278.48 215.785H231.359C228.727 215.785 226.594 217.919 226.594 220.551V269.579C226.594 272.211 228.727 274.344 231.359 274.344ZM260.455 386.388H285.947C287.768 386.388 289.245 384.911 289.245 383.09V382.376C289.245 380.555 287.768 379.078 285.947 379.078H260.455C258.634 379.078 257.157 380.555 257.157 382.376V383.09C257.157 384.911 258.634 386.388 260.455 386.388ZM457.88 266.277C454.78 269.328 452.22 273.417 450.22 277.428C449.78 278.297 449.371 279.165 448.991 280.015C449.581 280.274 450.16 280.554 450.73 280.854L455.89 283.724C456.42 284.004 456.93 284.314 457.4 284.664L457.4 284.664C458.01 284.174 458.65 283.675 459.33 283.195C465.77 278.545 475.33 274.574 487.33 277.954C487.33 277.954 490.86 279.624 492.81 280.894C494.35 281.894 495.87 283.635 495.87 283.635C495.847 283.681 495.72 283.595 495.486 283.438C495.212 283.253 494.791 282.97 494.22 282.684C490.59 280.865 480.79 277.624 462.47 289.365C462.19 289.534 461.91 289.715 461.63 289.904C463.3 293.714 463.15 298.334 461.04 302.354L423.66 373.554C420.13 380.284 411.82 382.874 405.09 379.344L399.91 376.614C390.16 371.494 384.6 361.524 384.64 351.224C384.66 346.804 385.71 342.304 387.91 338.104L394.49 325.574L411.56 293.054C417 282.694 428.3 276.944 439.46 277.694L439.461 277.694C439.831 276.615 440.25 275.597 440.71 274.638C443.5 268.678 447.45 264.928 448.37 264.087C448.5 263.977 448.65 263.917 448.82 263.937C449.06 263.968 449.52 264.027 450.39 264.198C451.788 264.453 455.062 265.182 456.92 265.595L456.92 265.595C457.241 265.667 457.52 265.729 457.74 265.777C457.97 265.837 458.05 266.118 457.88 266.277ZM359.482 322.342C355.458 329.836 348.392 341.693 345.783 337.922C343.374 334.439 344.681 327.693 344.681 327.693C344.681 327.693 327.696 348.753 323.632 344.93C319.568 341.107 316.339 322.789 321.506 317.821C325.399 314.077 336.455 303.961 343.931 300.673L359.482 322.342ZM590.998 348.89C598.422 346.917 612.163 343.809 611.196 348.138C610.345 351.95 604.957 355.287 604.957 355.287C604.957 355.287 629.855 353.611 629.809 358.757C629.764 363.903 619.375 377.557 612.775 377.166C608.112 376.89 595.708 375.855 588.486 373.247L590.998 348.89ZM444.584 360.543C462.581 359.016 495.887 333.803 495.887 333.803C496.044 333.774 496.428 333.849 496.43 334.116C496.441 335.709 494.494 339.909 493.797 340.893C492.983 342.042 491.02 343.382 474.028 353.891C460.905 362.007 447.521 364.967 442.106 365.895L441.03 368.218C440.53 369.298 439.25 369.768 438.17 369.268L437.736 369.066C436.656 368.566 436.186 367.286 436.686 366.206L440.669 357.605C441.169 356.525 442.45 356.055 443.529 356.555L443.964 356.757C445.043 357.256 445.513 358.537 445.013 359.617L444.584 360.543ZM888.312 342.023C877.493 342.023 868.722 351.439 868.721 363.055H864.116C852.5 363.055 843.082 372.472 843.082 384.089C843.082 395.705 852.5 405.123 864.116 405.123H915.339C926.955 405.123 936.372 395.705 936.372 384.089C936.372 372.472 926.955 363.055 915.339 363.055H915.176C915.175 351.439 906.404 342.023 895.585 342.023H888.312ZM472.29 454.93L485.276 448.599L491.608 461.585L478.621 467.916L472.29 454.93ZM253.989 229.766C249.709 229.766 246.24 233.235 246.24 237.518C246.24 240.31 253.989 255.192 253.989 255.192C253.989 255.192 261.742 239.829 261.742 237.518C261.742 233.235 258.272 229.766 253.989 229.766ZM253.989 241.198C251.634 241.198 249.724 239.288 249.724 236.933C249.724 234.578 251.634 232.668 253.989 232.668C256.348 232.668 258.257 234.578 258.257 236.933C258.257 239.288 256.348 241.198 253.989 241.198ZM269.728 267.321H240.111C239.072 267.321 238.23 266.479 238.23 265.44V265.033C238.23 263.995 239.072 263.152 240.111 263.152H269.728C270.767 263.152 271.609 263.995 271.609 265.033V265.44C271.609 266.479 270.767 267.321 269.728 267.321ZM258.718 257.124C258.718 257.818 256.601 258.381 253.991 258.381C251.38 258.381 249.263 257.818 249.263 257.124C249.263 256.43 251.38 255.868 253.991 255.868C256.601 255.868 258.718 256.43 258.718 257.124ZM260.458 512.362C260.596 511.597 260.621 509.866 260.537 509.127C261.424 508.593 262.398 508.013 262.931 507.715C263.707 507.281 263.036 506.353 262.238 505.583L262.765 505.227L272.363 518.753L266.491 522.968L266.495 522.932C265.408 521.859 264.487 521.462 263.658 521.104C262.586 520.642 261.668 520.246 260.743 518.539C259.569 516.373 259.978 514.549 260.299 513.118L260.299 513.117C260.359 512.852 260.415 512.6 260.458 512.362ZM254.769 545.921L254.723 545.879C255.221 544.728 255.863 543.465 256.59 542.134C256.877 542.412 257.174 542.692 257.488 542.987L257.491 542.991L257.492 542.991L257.493 542.992L257.495 542.994C257.617 543.109 257.742 543.227 257.871 543.348C258.549 543.99 259.283 544.696 260.048 545.516C260.801 546.324 260.756 547.59 259.948 548.343C259.14 549.096 257.875 549.052 257.122 548.244C256.445 547.518 255.785 546.881 255.122 546.255C255.063 546.198 255.003 546.142 254.943 546.085L254.769 545.922L254.769 545.921ZM261.791 537.692C261.142 537.116 260.641 536.484 260.244 535.841C261.103 534.399 261.958 532.962 262.748 531.579C263.206 532.976 263.536 533.893 264.445 534.699C265.272 535.432 265.347 536.696 264.614 537.523C263.881 538.349 262.617 538.425 261.791 537.692ZM327.489 533.16C328.201 532.616 327.386 531.783 326.478 531.132L329.036 528.684L341.05 540.034L333.36 547.743L333.359 547.719C332.11 546.839 331.137 546.598 330.26 546.382C329.127 546.102 328.156 545.862 326.964 544.33C325.451 542.386 325.555 540.519 325.636 539.055L325.636 539.054C325.652 538.783 325.666 538.525 325.669 538.283C325.679 537.476 325.399 535.66 325.193 535C326.027 534.319 326.978 533.55 327.489 533.16ZM325.564 572.322L325.512 572.287C325.814 571.071 326.24 569.719 326.738 568.287C327.069 568.514 327.409 568.743 327.769 568.984L327.769 568.984L327.772 568.986C327.912 569.08 328.056 569.176 328.202 569.275C328.977 569.797 329.816 570.373 330.705 571.056C331.581 571.73 331.745 572.985 331.071 573.861C330.398 574.736 329.142 574.9 328.266 574.227C327.48 573.622 326.724 573.102 325.968 572.593C325.835 572.503 325.7 572.413 325.565 572.323L325.564 572.322ZM331.141 563.052C330.406 562.591 329.808 562.049 329.31 561.48C329.921 559.917 330.528 558.358 331.081 556.864C331.762 558.168 332.238 559.018 333.268 559.665C334.203 560.252 334.486 561.487 333.898 562.422C333.311 563.358 332.076 563.64 331.141 563.052Z" fill="#28323F"/>
<path opacity="0.46" d="M448.99 276.847C449.41 277.026 449.82 277.227 450.22 277.427C449.78 278.297 449.37 279.167 448.99 280.017C445.92 278.667 442.69 277.907 439.46 277.697C439.83 276.617 440.25 275.597 440.71 274.637C443.52 274.947 446.32 275.667 448.99 276.847Z" fill="#414042"/>
<path opacity="0.46" d="M462.47 289.365C462.19 289.535 461.91 289.715 461.63 289.905C460.74 287.855 459.32 286.025 457.4 284.665C458.01 284.175 458.65 283.675 459.33 283.195C460.3 284.245 461.07 285.445 461.63 286.735C462 287.575 462.28 288.455 462.47 289.365Z" fill="#414042"/>
<path fill-rule="evenodd" clip-rule="evenodd" d="M437.724 302.677L417.045 291.82C416.226 291.39 415.911 290.379 416.341 289.56C416.771 288.742 417.782 288.427 418.601 288.856L440.095 300.141C440.913 300.571 441.229 301.582 440.799 302.401C440.564 302.849 440.154 303.146 439.697 303.253C439.547 307.972 434.767 314.067 434.452 309.346C434.235 306.084 436.183 303.888 437.724 302.677ZM423.547 342.349L414.53 357.115C411.98 361.291 406.627 362.77 402.294 360.497L384.637 351.229C384.657 346.809 385.707 342.309 387.907 338.109L394.487 325.579C394.827 325.519 395.187 325.569 395.517 325.739L422.847 340.089C423.657 340.519 423.977 341.529 423.547 342.349ZM423.66 373.555C420.294 379.971 412.583 382.624 406.039 379.798C419.632 386.905 436.506 381.972 444.086 368.512L445.994 365.126C444.448 365.47 443.134 365.719 442.106 365.895L441.03 368.218C440.53 369.298 439.25 369.767 438.17 369.268L437.736 369.066C436.656 368.566 436.186 367.286 436.686 366.206L440.669 357.605C441.169 356.525 442.45 356.055 443.529 356.555L443.964 356.757C445.043 357.256 445.513 358.537 445.013 359.617L444.584 360.543C445.972 360.426 447.451 360.167 448.999 359.79L469.056 324.181C475.757 312.283 472.996 297.628 463.2 288.902C462.958 289.054 462.715 289.208 462.47 289.365C462.19 289.535 461.91 289.715 461.63 289.905C463.3 293.715 463.15 298.335 461.04 302.354L423.66 373.555ZM327.05 320.934C327.265 320.761 327.58 320.796 327.753 321.012C327.925 321.227 327.89 321.542 327.675 321.715L327.362 321.324L327.05 320.934ZM327.05 320.934C327.05 320.934 327.05 320.934 327.362 321.324C327.675 321.715 327.675 321.715 327.675 321.715L327.674 321.715L327.673 321.716L327.668 321.72L327.648 321.736L327.57 321.799L327.273 322.036L326.212 322.885C325.333 323.589 324.159 324.528 322.979 325.47C321.799 326.413 320.613 327.361 319.71 328.08C319.258 328.44 318.877 328.743 318.603 328.96C318.345 329.164 318.151 329.316 318.105 329.347C317.875 329.5 317.565 329.438 317.412 329.209C317.258 328.979 317.321 328.668 317.55 328.515M327.05 320.934L327.049 320.934ZM327.049 320.934L327.048 320.935ZM327.048 320.935L327.043 320.939ZM327.043 320.939L327.023 320.955ZM327.023 320.955L326.945 321.018ZM326.945 321.018L326.648 321.255ZM326.648 321.255L325.587 322.104ZM325.587 322.104C324.708 322.808 323.534 323.746 322.355 324.689ZM322.355 324.689C321.175 325.632 319.989 326.579 319.087 327.298ZM319.087 327.298C318.635 327.657 318.255 327.959 317.982 328.176ZM317.982 328.176C317.845 328.284 317.736 328.37 317.658 328.431ZM317.658 328.431C317.613 328.467 317.584 328.489 317.567 328.502ZM328.795 325.641C329.011 325.468 329.326 325.503 329.498 325.719C329.67 325.935 329.635 326.25 329.419 326.422L329.107 326.031L328.795 325.641ZM329.107 326.031C329.419 326.422 329.419 326.422 329.419 326.422L329.419 326.422L329.417 326.424L329.411 326.429L329.386 326.449L329.289 326.526L328.92 326.821L327.601 327.874C326.509 328.746 325.051 329.91 323.587 331.078C322.123 332.246 320.652 333.418 319.536 334.307C318.978 334.751 318.508 335.124 318.172 335.39C318.003 335.523 317.868 335.63 317.772 335.706C317.689 335.771 317.609 335.833 317.576 335.855C317.347 336.008 317.036 335.946 316.883 335.717C316.73 335.487 316.792 335.176 317.021 335.023C317.017 335.026 317.023 335.021 317.045 335.005L317.045 335.005L317.045 335.005L317.045 335.005L317.045 335.004L317.045 335.004L317.045 335.004C317.066 334.988 317.101 334.961 317.154 334.919C317.249 334.845 317.383 334.739 317.551 334.606C317.886 334.341 318.356 333.968 318.913 333.524C320.029 332.636 321.499 331.464 322.963 330.297C324.427 329.129 325.885 327.965 326.977 327.093L328.296 326.04L328.665 325.745L328.762 325.667L328.787 325.647L328.793 325.642L328.795 325.641L328.795 325.641C328.795 325.641 328.795 325.641 329.107 326.031ZM331.243 330.422C331.071 330.207 330.756 330.171 330.54 330.344L330.852 330.734C330.54 330.344 330.54 330.344 330.54 330.344L330.54 330.344L330.538 330.345L330.532 330.35L330.507 330.37L330.41 330.448L330.041 330.743L328.722 331.796C327.63 332.668 326.172 333.832 324.708 335C323.244 336.168 321.774 337.339 320.658 338.227C320.1 338.671 319.631 339.044 319.296 339.309C319.128 339.442 318.994 339.548 318.899 339.622C318.847 339.663 318.812 339.691 318.791 339.707L318.79 339.707L318.79 339.708C318.768 339.724 318.762 339.729 318.766 339.726C318.537 339.879 318.475 340.19 318.628 340.42C318.781 340.649 319.091 340.712 319.321 340.558C319.354 340.536 319.433 340.474 319.516 340.409C319.613 340.333 319.748 340.227 319.916 340.093C320.253 339.827 320.723 339.454 321.281 339.01C322.397 338.122 323.867 336.949 325.332 335.781C326.796 334.613 328.254 333.449 329.346 332.577L330.665 331.524L331.034 331.229L331.131 331.152L331.156 331.132L331.162 331.127L331.164 331.125L331.164 331.125C331.164 331.125 331.164 331.125 330.852 330.734L331.164 331.125C331.38 330.953 331.415 330.638 331.243 330.422ZM614.671 363.002C614.685 362.726 614.92 362.514 615.196 362.528L630.954 363.32C631.23 363.334 631.442 363.569 631.428 363.845C631.414 364.121 631.18 364.333 630.904 364.319L615.146 363.527C614.87 363.513 614.657 363.278 614.671 363.002ZM609.596 367.666C609.61 367.391 609.845 367.178 610.121 367.192L627.259 368.054C627.535 368.068 627.747 368.302 627.733 368.578C627.719 368.854 627.484 369.066 627.209 369.052L610.07 368.191C609.795 368.177 609.582 367.942 609.596 367.666ZM608.116 371.853C607.841 371.836 607.604 372.045 607.587 372.321C607.57 372.597 607.78 372.834 608.055 372.851L622.128 373.712C622.404 373.729 622.641 373.519 622.658 373.244C622.674 372.968 622.465 372.731 622.189 372.714L608.116 371.853Z" fill="#414042"/>
<path d="M233.711 559.468C233.671 559.489 233.716 559.529 233.713 559.527C233.476 559.353 231.431 557.63 230.869 556.849C229.055 554.329 226.81 549.641 229.561 544.497C233.75 536.666 237.223 528.516 235.995 519.555C235.153 513.408 236.014 507.997 241.249 507.81C243.991 507.711 246.227 509.02 247.632 513.97C250.965 525.708 246.836 552.416 233.711 559.468Z" fill="#F0F1F1"/>
<path d="M236.634 543.714C236.619 543.722 236.636 543.737 236.635 543.736C236.544 543.669 235.759 543.008 235.543 542.708C234.846 541.74 233.985 539.94 235.041 537.965C236.649 534.958 237.983 531.828 237.511 528.387C237.188 526.027 237.519 523.949 239.529 523.877C240.582 523.839 241.44 524.342 241.98 526.243C243.26 530.75 241.674 541.006 236.634 543.714Z" fill="#E5E6E7"/>
<path d="M306.923 589.226C306.887 589.254 306.852 589.24 306.849 589.239C306.587 589.106 304.389 587.862 303.689 587.109C301.577 584.833 298.503 580.664 300.372 575.14C303.219 566.726 305.308 558.118 302.625 549.479C300.786 543.554 300.748 538.075 305.88 537.031C308.569 536.484 310.989 537.408 313.188 542.06C318.402 553.093 318.713 580.116 306.923 589.226Z" fill="#F0F1F1"/>
<path d="M307.341 572.653C307.327 572.664 307.346 572.675 307.345 572.675C307.249 572.626 306.413 572.154 306.157 571.879C305.384 571.046 304.259 569.52 304.943 567.498C305.985 564.419 306.75 561.269 305.768 558.107C305.095 555.938 305.081 553.934 306.959 553.551C307.943 553.351 308.829 553.689 309.634 555.392C311.542 559.43 311.655 569.319 307.341 572.653Z" fill="#E5E6E7"/>
<path fill-rule="evenodd" clip-rule="evenodd" d="M355.012 86C354.736 86 354.512 86.2239 354.512 86.5C354.512 86.7761 354.736 87 355.012 87H417.852C418.129 87 418.352 86.7761 418.352 86.5C418.352 86.2239 418.129 86 417.852 86H355.012ZM355.012 91.7553C354.736 91.7553 354.512 91.9791 354.512 92.2553C354.512 92.5314 354.736 92.7553 355.012 92.7553H417.852C418.129 92.7553 418.352 92.5314 418.352 92.2553C418.352 91.9791 418.129 91.7553 417.852 91.7553H355.012ZM354.512 98.0105C354.512 97.7344 354.736 97.5105 355.012 97.5105H397.852C398.129 97.5105 398.352 97.7344 398.352 98.0105C398.352 98.2867 398.129 98.5105 397.852 98.5105H355.012C354.736 98.5105 354.512 98.2867 354.512 98.0105ZM365.012 103.266C364.736 103.266 364.512 103.49 364.512 103.766C364.512 104.042 364.736 104.266 365.012 104.266H397.852C398.129 104.266 398.352 104.042 398.352 103.766C398.352 103.49 398.129 103.266 397.852 103.266H365.012ZM364.512 109.521C364.512 109.245 364.736 109.021 365.012 109.021H397.852C398.129 109.021 398.352 109.245 398.352 109.521C398.352 109.797 398.129 110.021 397.852 110.021H365.012C364.736 110.021 364.512 109.797 364.512 109.521ZM646.502 178.343C646.502 179.491 646.39 180.611 646.227 181.714C652.841 185.749 657.272 193.01 657.272 201.325C657.272 214.018 646.982 224.308 634.289 224.308H578.322C565.629 224.308 555.339 214.018 555.339 201.325C555.339 188.632 565.629 178.343 578.322 178.343H592.004C592.004 165.65 602.294 155.36 614.987 155.36H623.519C636.212 155.36 646.502 165.65 646.502 178.343Z" fill="white"/>
<path d="M646.227 181.714L645.733 181.641L645.684 181.969L645.967 182.141L646.227 181.714ZM592.004 178.343V178.843H592.504V178.343H592.004ZM355.012 86.5V85.5C354.459 85.5 354.012 85.9477 354.012 86.5H355.012ZM355.012 86.5H354.012C354.012 87.0523 354.459 87.5 355.012 87.5V86.5ZM417.852 86.5H355.012V87.5H417.852V86.5ZM417.852 86.5V87.5C418.405 87.5 418.852 87.0523 418.852 86.5H417.852ZM417.852 86.5H418.852C418.852 85.9477 418.405 85.5 417.852 85.5V86.5ZM355.012 86.5H417.852V85.5H355.012V86.5ZM355.012 92.2553V91.2553C354.459 91.2553 354.012 91.703 354.012 92.2553H355.012ZM355.012 92.2553H354.012C354.012 92.8076 354.459 93.2553 355.012 93.2553V92.2553ZM417.852 92.2553H355.012V93.2553H417.852V92.2553ZM417.852 92.2553V93.2553C418.405 93.2553 418.852 92.8076 418.852 92.2553H417.852ZM417.852 92.2553H418.852C418.852 91.703 418.405 91.2553 417.852 91.2553V92.2553ZM355.012 92.2553H417.852V91.2553H355.012V92.2553ZM355.012 97.0105C354.459 97.0105 354.012 97.4583 354.012 98.0105H355.012V97.0105ZM397.852 97.0105H355.012V98.0105H397.852V97.0105ZM398.852 98.0105C398.852 97.4583 398.405 97.0105 397.852 97.0105V98.0105H398.852ZM397.852 99.0105C398.405 99.0105 398.852 98.5628 398.852 98.0105H397.852V99.0105ZM355.012 99.0105H397.852V98.0105H355.012V99.0105ZM354.012 98.0105C354.012 98.5628 354.459 99.0105 355.012 99.0105V98.0105H354.012ZM365.012 103.766V102.766C364.459 102.766 364.012 103.214 364.012 103.766H365.012ZM365.012 103.766H364.012C364.012 104.318 364.459 104.766 365.012 104.766V103.766ZM397.852 103.766H365.012V104.766H397.852V103.766ZM397.852 103.766V104.766C398.405 104.766 398.852 104.318 398.852 103.766H397.852ZM397.852 103.766H398.852C398.852 103.214 398.405 102.766 397.852 102.766V103.766ZM365.012 103.766H397.852V102.766H365.012V103.766ZM365.012 108.521C364.459 108.521 364.012 108.969 364.012 109.521H365.012V108.521ZM397.852 108.521H365.012V109.521H397.852V108.521ZM398.852 109.521C398.852 108.969 398.405 108.521 397.852 108.521V109.521H398.852ZM397.852 110.521C398.405 110.521 398.852 110.073 398.852 109.521H397.852V110.521ZM365.012 110.521H397.852V109.521H365.012V110.521ZM364.012 109.521C364.012 110.073 364.459 110.521 365.012 110.521V109.521H364.012ZM646.722 181.787C646.887 180.668 647.002 179.523 647.002 178.343H646.002C646.002 179.459 645.893 180.553 645.733 181.641L646.722 181.787ZM657.772 201.325C657.772 192.828 653.243 185.409 646.488 181.287L645.967 182.141C652.439 186.089 656.772 193.193 656.772 201.325H657.772ZM634.289 224.808C647.258 224.808 657.772 214.295 657.772 201.325H656.772C656.772 213.742 646.706 223.808 634.289 223.808V224.808ZM578.322 224.808H634.289V223.808H578.322V224.808ZM554.839 201.325C554.839 214.295 565.353 224.808 578.322 224.808V223.808C565.905 223.808 555.839 213.742 555.839 201.325H554.839ZM578.322 177.843C565.353 177.843 554.839 188.356 554.839 201.325H555.839C555.839 188.909 565.905 178.843 578.322 178.843V177.843ZM592.004 177.843H578.322V178.843H592.004V177.843ZM614.987 154.86C602.018 154.86 591.504 165.373 591.504 178.343H592.504C592.504 165.926 602.57 155.86 614.987 155.86V154.86ZM623.519 154.86H614.987V155.86H623.519V154.86ZM647.002 178.343C647.002 165.373 636.488 154.86 623.519 154.86V155.86C635.936 155.86 646.002 165.926 646.002 178.343H647.002Z" fill="#414042"/>
</svg>