<svg class="illustration" width="1155" height="700" viewBox="0 0 1155 700" fill="none" xmlns="http://www.w3.org/2000/svg">
<rect x="244" y="100" width="668" height="501" fill="transparent"/>
<path d="M715.791 425.148C826.288 426.992 866.094 541.162 874.453 454.548C882.532 370.834 780.272 178.61 696.733 168.894C622.918 160.31 643.475 223.738 559.884 253.679C476.293 283.621 419.402 188.112 363.636 240.92C318.882 283.3 373.865 315.985 317.315 439.838C290.367 498.859 403.96 570.124 493.122 553.727C620.793 530.247 605.293 423.304 715.791 425.148Z" fill="#1C1C1C"/>
<path fill-rule="evenodd" clip-rule="evenodd" d="M507.804 153.587L510.696 150.891L510.809 150.913L622.531 169.544L659.147 244.391L605.309 302.45L493.509 283.016L491.065 278.776L544.699 227.01L543.453 224.21L654.568 242.74L619.605 172.231L507.804 153.587Z" fill="#3366E9"/>
<path fill-rule="evenodd" clip-rule="evenodd" d="M537.999 539.975C571.531 524.708 591.412 502.099 609.992 480.97C636.244 451.116 659.899 424.216 715.79 425.149C768.732 426.032 805.446 452.701 830.248 470.717C857.213 490.304 870.099 499.664 874.453 454.548C882.532 370.835 780.272 178.61 696.733 168.895C657.181 164.295 644.724 180.37 628.822 200.891C621.934 209.78 614.4 219.502 603.738 228.739C681.572 235.946 759.262 264.811 742.303 329.572C727.594 385.743 687.29 401.345 650.648 415.53C646.086 417.295 641.581 419.039 637.189 420.837C599.19 436.389 562.254 451.507 548.746 506.607C545.706 519.007 542.071 530.087 537.999 539.975Z" fill="black" fill-opacity="0.21"/>
<path d="M495.381 278.028L544.233 225.912L650.516 243.636L601.665 295.752L495.381 278.028Z" fill="black" fill-opacity="0.22"/>
<path d="M495.381 278.028L544.233 225.912L650.516 243.636L601.665 295.752L495.381 278.028Z" fill="black" fill-opacity="0.22"/>
<path fill-rule="evenodd" clip-rule="evenodd" d="M459.91 359.716C479.783 361.949 504.534 356.721 523.252 327.086C524.045 325.831 525.075 324.058 526.299 321.953C529.622 316.234 534.367 308.069 539.622 301.21C546.703 291.968 557.594 280.968 572.239 280.691L572.6 299.732C567.471 299.829 561.45 304.036 554.74 312.794C550.255 318.647 546.77 324.66 543.633 330.073C542.152 332.627 540.749 335.049 539.354 337.256C516.079 374.105 483.594 381.542 457.783 378.642L459.91 359.716Z" fill="#FFBD5A"/>
<path d="M507.769 153.581L542.733 224.09L654.569 242.74L619.605 172.232L507.769 153.581Z" fill="#CFD4E8"/>
<path d="M514.903 157.913L546.468 221.568L647.435 238.406L615.869 174.75L514.903 157.913Z" fill="#E8ECFA"/>
<path fill-rule="evenodd" clip-rule="evenodd" d="M541.831 241.223L538.737 240.702L541.7 237.993L544.794 238.514L541.831 241.223ZM553.236 243.347L547.047 242.305L550.982 239.556L557.171 240.598L553.236 243.347ZM565.252 245.445L559.063 244.403L563.359 241.64L569.548 242.682L565.252 245.445ZM577.629 247.529L571.44 246.487L575.737 243.724L581.925 244.766L577.629 247.529ZM590.608 249.588L584.419 248.547L588.114 245.808L594.302 246.85L590.608 249.588ZM603.226 251.663L597.037 250.621L600.491 247.892L606.679 248.934L603.226 251.663ZM615.242 253.761L609.053 252.719L612.868 249.976L619.056 251.018L615.242 253.761ZM625.392 255.67L622.298 255.149L625.245 252.06L628.339 252.581C633.033 253.371 628.898 256.261 625.392 255.67Z" fill="black" fill-opacity="0.7"/>
<path fill-rule="evenodd" clip-rule="evenodd" d="M534.054 248.733L530.959 248.212L533.922 245.503L537.016 246.024L534.054 248.733ZM545.459 250.856L539.27 249.814L543.205 247.066L549.394 248.108L545.459 250.856ZM557.475 252.955L551.286 251.913L555.582 249.15L561.771 250.192L557.475 252.955ZM569.852 255.039L563.663 253.997L567.959 251.234L574.148 252.276L569.852 255.039ZM582.831 257.098L576.642 256.056L580.336 253.318L586.525 254.36L582.831 257.098ZM595.448 259.172L589.26 258.13L592.713 255.402L598.902 256.443L595.448 259.172ZM607.464 261.271L601.276 260.229L605.09 257.485L611.279 258.527L607.464 261.271ZM617.615 263.18L614.52 262.659L617.468 259.569L620.562 260.09C625.256 260.881 621.12 263.77 617.615 263.18Z" fill="black" fill-opacity="0.7"/>
<path fill-rule="evenodd" clip-rule="evenodd" d="M526.275 256.241L523.181 255.72L526.144 253.011L529.238 253.532L526.275 256.241ZM537.68 258.364L531.492 257.322L535.427 254.574L541.615 255.616L537.68 258.364ZM549.696 260.463L543.508 259.421L547.804 256.658L553.992 257.7L549.696 260.463ZM562.073 262.547L555.885 261.505L560.181 258.742L566.369 259.784L562.073 262.547ZM575.052 264.606L568.864 263.564L572.558 260.825L578.747 261.867L575.052 264.606ZM587.67 266.68L581.481 265.638L584.935 262.909L591.124 263.951L587.67 266.68ZM599.686 268.779L593.498 267.737L597.312 264.993L603.501 266.035L599.686 268.779ZM609.836 270.688L606.742 270.167L609.689 267.077L612.784 267.598C617.478 268.388 613.342 271.278 609.836 270.688Z" fill="black" fill-opacity="0.7"/>
<path fill-rule="evenodd" clip-rule="evenodd" d="M518.498 263.751L515.403 263.23L518.366 260.521L521.46 261.042L518.498 263.751ZM529.902 265.874L523.714 264.832L527.649 262.084L533.837 263.126L529.902 265.874ZM541.918 267.973L535.73 266.931L540.026 264.167L546.215 265.209L541.918 267.973ZM554.296 270.056L548.107 269.015L552.403 266.251L558.592 267.293L554.296 270.056ZM567.274 272.116L561.086 271.074L564.78 268.335L570.969 269.377L567.274 272.116ZM579.892 274.19L573.704 273.148L577.157 270.419L583.346 271.461L579.892 274.19ZM591.908 276.289L585.72 275.247L589.534 272.503L595.723 273.545L591.908 276.289ZM602.059 278.198L598.964 277.677L601.911 274.587L605.006 275.108C609.7 275.898 605.564 278.788 602.059 278.198Z" fill="black" fill-opacity="0.7"/>
<path fill-rule="evenodd" clip-rule="evenodd" d="M436.459 343.027C451.137 341.054 467.965 332.885 476.113 308.115C477.776 303.059 480.784 294.51 484.473 286.393C486.315 282.34 488.4 278.231 490.654 274.659C492.805 271.249 495.55 267.607 498.923 265.197C502.688 262.507 507.922 263.378 510.613 267.143C513.304 270.909 512.432 276.143 508.667 278.833C507.978 279.326 506.631 280.745 504.828 283.602C503.129 286.295 501.399 289.657 499.731 293.328C496.399 300.658 493.608 308.565 492.034 313.352C481.539 345.255 458.582 356.963 438.692 359.638C434.106 360.254 429.887 357.036 429.271 352.449C428.654 347.862 431.872 343.644 436.459 343.027Z" fill="#FFBD5A"/>
<path fill-rule="evenodd" clip-rule="evenodd" d="M842.654 133.521L729.592 160.42L730.907 165.949L843.969 139.05L842.654 133.521ZM758.67 143.124L727.256 150.598L728.571 156.126L759.985 148.653L758.67 143.124ZM731.93 170.241L844.991 143.343L846.306 148.871L733.245 175.77L731.93 170.241ZM768.018 182.411L736.604 189.885L737.919 195.414L769.334 187.94L768.018 182.411ZM738.941 199.708L800.506 185.061L801.821 190.589L740.256 205.236L738.941 199.708ZM775.03 211.878L743.616 219.351L744.931 224.88L776.345 217.406L775.03 211.878ZM745.953 229.174L807.516 214.527L808.831 220.056L747.268 234.703L745.953 229.174ZM782.041 241.344L750.627 248.818L751.942 254.346L783.357 246.872L782.041 241.344ZM752.965 258.639L866.022 231.741L867.337 237.27L754.281 264.167L752.965 258.639ZM868.358 241.564L755.302 268.461L756.618 273.99L869.673 247.093L868.358 241.564ZM310.782 136.259L342.907 139.537L342.33 145.19L310.205 141.913L310.782 136.259ZM418.433 157.391L309.758 146.303L309.181 151.956L417.856 163.044L418.433 157.391ZM308.733 156.347L417.408 167.435L416.831 173.089L308.156 162.001L308.733 156.347ZM338.809 179.712L306.685 176.435L306.108 182.088L338.232 185.366L338.809 179.712ZM305.66 186.479L380.995 194.165L380.419 199.819L305.084 192.133L305.66 186.479ZM335.736 209.846L303.612 206.568L303.035 212.222L335.159 215.499L335.736 209.846ZM302.587 216.611L377.921 224.297L377.344 229.951L302.01 222.264L302.587 216.611ZM332.663 239.977L300.538 236.7L299.961 242.353L332.086 245.631L332.663 239.977ZM770.932 405.332C765.184 404.698 757.965 402.832 753.86 401.577C752.864 403.043 751.469 406.225 753.86 407.221C755.759 408.012 756.806 411.582 757.267 414.305L747.48 425.611C745.34 427.552 744.348 426.965 743.391 426.398C742.643 425.955 741.916 425.525 740.679 426.32C738.333 427.829 745.05 437.248 750.092 443.055C752.79 444.379 757.66 446.161 759.847 444.702C760.994 443.938 763.779 440.504 767.06 436.458L767.061 436.457C772.293 430.006 778.786 422 781.91 420.781C786.982 418.801 821.719 400.913 814.442 386.671C811.711 385.358 807.362 385.626 803.643 389.306C800.854 392.066 791.501 396.193 781.44 400.632L781.434 400.634L781.425 400.638C777.931 402.18 774.351 403.759 770.932 405.332ZM729.171 469.704C724.596 469.713 718.756 468.885 715.417 468.261C714.764 469.502 713.949 472.127 715.916 472.699C717.48 473.153 718.619 475.867 719.222 477.967L712.527 487.721C711.016 489.437 710.184 489.063 709.381 488.702C708.754 488.42 708.145 488.146 707.242 488.881C705.531 490.275 711.644 497.085 716.122 501.204C718.36 502.007 722.348 502.978 723.939 501.637C724.773 500.935 726.659 497.988 728.881 494.517L728.882 494.517C732.425 488.982 736.822 482.113 739.17 480.878C740.035 480.423 742.028 479.189 744.512 477.43C747.187 475.196 749.896 473.112 752.171 471.363L752.172 471.362L752.173 471.362L752.385 471.198C759.355 464.987 765.62 457.064 761.731 451.184C759.468 450.392 756.072 450.987 753.474 454.21C751.525 456.627 744.536 460.699 737.018 465.078L737.018 465.078C734.403 466.602 731.724 468.163 729.171 469.704ZM451.813 326.858C448.165 331.385 442.997 334.813 437.058 337.251C437.129 337.337 432.983 337.251 432.983 337.251C432.983 337.251 406.688 336.051 403.962 338.959L399.004 347.634C396.833 349.713 393.391 359.707 392.58 362.826C377.925 419.19 433.769 498.605 451.813 516.456C470.278 481.262 490.966 445.982 490.966 445.982C490.966 445.982 490.307 442.871 483.836 436.481C482.169 434.834 480.33 433.238 478.516 431.663C472.053 426.052 468.694 412.904 468.694 412.904C468.694 412.904 466.366 402.044 464.916 394.676C474.031 395.614 484.718 392.799 489.5 387.876C489.642 386.548 488.495 383.589 487.222 380.306C486.308 377.949 485.33 375.426 484.718 373.221C483.547 368.999 473.748 354.774 468.908 349.792C468.837 349.81 468.765 349.828 468.694 349.846C471.645 349.117 474.475 348.169 477.136 346.983C479.347 342.734 451.813 326.858 451.813 326.858Z" fill="
#0ed2f7"/>
<path fill-rule="evenodd" clip-rule="evenodd" d="M447.666 351.302C450.584 351.585 453.663 351.808 456.804 351.613C464.092 351.16 471.054 349.693 477.136 346.982C479.347 342.733 451.813 326.857 451.813 326.857C448.165 331.384 442.998 334.812 437.059 337.25C438.393 338.873 442.622 344.113 447.666 351.302Z" fill="black" fill-opacity="0.25"/>
<path fill-rule="evenodd" clip-rule="evenodd" d="M623.68 180.45L617.2 179.427C611.195 178.479 613.499 189.462 624.386 190.763C625.651 190.914 627.264 191.146 629.128 191.437L623.68 180.45ZM633.046 199.338L626.464 198.299C620.46 197.351 622.764 208.335 633.651 209.635C634.938 209.789 636.587 210.026 638.494 210.325L633.046 199.338ZM642.412 218.225L635.728 217.17C629.723 216.222 632.027 227.205 642.915 228.506C644.225 228.662 645.909 228.906 647.86 229.212L642.412 218.225Z" fill="#D1D6EA" fill-opacity="0.9"/>
<path fill-rule="evenodd" clip-rule="evenodd" d="M535.312 209.124L575.083 216.282L572.539 210.012L532.421 203.294L535.312 209.124ZM528.71 195.81L569.726 203.191L567.181 196.921L525.827 189.996L528.71 195.81ZM522.668 183.625C535.309 185.954 547.925 188.451 547.925 188.451C559.304 190.247 554.006 178.156 546.395 176.954L517.064 172.324L522.668 183.625Z" fill="#D1D6EA" fill-opacity="0.9"/>
<path d="M723.939 501.637C722.208 503.095 717.644 501.818 715.578 500.998C715.83 503.24 716.534 503.358 721.802 507.206C727.071 511.054 736.334 497.775 737.455 494.59C738.577 491.405 746.966 480.001 751.838 479.452C756.711 478.904 767.289 461.53 767.077 457.015C766.908 453.402 763.377 451.464 761.694 451.127C768.802 461.676 742.99 478.869 739.17 480.878C735.349 482.886 726.102 499.814 723.939 501.637Z" fill="#C2BFBF"/>
<path fill-rule="evenodd" clip-rule="evenodd" d="M715.916 472.697C717.48 473.151 718.619 475.866 719.222 477.967L712.527 487.721C711.016 489.437 710.184 489.063 709.381 488.702C708.876 488.475 708.382 488.253 707.737 488.559L703.266 486.775C706.178 482.105 708.858 474.956 708.807 469.531L714.969 472.026C715.163 472.329 715.467 472.567 715.916 472.697Z" fill="#FFBD5A"/>
<path opacity="0.9" d="M580.84 141.336L531.205 133.016L551.717 178.297L600.578 186.908L580.84 141.336Z" fill="#E8ECFA"/>
<path d="M544.181 143.158L575.241 148.381L576.965 152.417L545.95 146.922L544.181 143.158Z" fill="#CFD4E8" fill-opacity="0.91"/>
<path d="M547.999 151.643L578.886 156.805L580.521 160.82L549.769 155.29L547.999 151.643Z" fill="#CFD4E8" fill-opacity="0.91"/>
<path d="M551.497 159.215L582.082 164.353L583.819 168.421L553.177 162.875L551.497 159.215Z" fill="#CFD4E8" fill-opacity="0.91"/>
<path d="M555.312 167.646L585.798 172.837L587.605 176.766L557.061 171.461L555.312 167.646Z" fill="#CFD4E8" fill-opacity="0.91"/>
<path fill-rule="evenodd" clip-rule="evenodd" d="M747.481 425.611L757.267 414.306C756.995 412.698 756.519 410.794 755.783 409.342L742.387 406.986C741.397 412.761 738.68 419.809 735.744 426.352L740.235 427.01C740.297 426.707 740.442 426.473 740.679 426.321C741.916 425.525 742.643 425.955 743.391 426.398C744.349 426.965 745.34 427.552 747.481 425.611Z" fill="#FFBD5A"/>
<path d="M647.377 209.133C647.217 208.966 646.953 208.961 646.786 209.121C646.62 209.281 646.615 209.545 646.775 209.711L647.377 209.133ZM649.758 212.213L649.985 212.563L650.409 212.288L650.059 211.924L649.758 212.213ZM647.153 213.405C646.96 213.531 646.905 213.789 647.03 213.983C647.156 214.176 647.414 214.231 647.608 214.106L647.153 213.405ZM646.775 209.711L649.457 212.502L650.059 211.924L647.377 209.133L646.775 209.711ZM649.531 211.863L647.153 213.405L647.608 214.106L649.985 212.563L649.531 211.863Z" fill="#E8ECFA"/>
<path d="M639.7 208.466C639.845 208.287 640.108 208.259 640.287 208.404C640.466 208.549 640.494 208.812 640.349 208.991L639.7 208.466ZM638.296 210.863L638.049 211.199L637.697 210.94L637.972 210.6L638.296 210.863ZM640.776 212.17C640.962 212.307 641.002 212.568 640.865 212.754C640.728 212.94 640.467 212.979 640.281 212.843L640.776 212.17ZM640.349 208.991L638.621 211.125L637.972 210.6L639.7 208.466L640.349 208.991ZM638.544 210.527L640.776 212.17L640.281 212.843L638.049 211.199L638.544 210.527Z" fill="#E8ECFA"/>
<path fill-rule="evenodd" clip-rule="evenodd" d="M542.413 145.762L573.474 150.985L575.197 155.021L544.183 149.525L542.413 145.762ZM540.605 180.375L487.286 171.959C481.282 171.011 483.586 181.994 494.473 183.295C505.36 184.596 542.135 191.872 542.135 191.872C553.514 193.668 548.216 181.577 540.605 180.375ZM661.648 190.638L608.33 182.222C602.325 181.274 604.629 192.257 615.516 193.558C626.404 194.859 663.179 202.135 663.179 202.135C674.557 203.931 669.259 191.84 661.648 190.638ZM617.594 201.093L670.913 209.509C678.524 210.711 683.822 222.802 672.443 221.006C672.443 221.006 635.668 213.729 624.781 212.428C613.894 211.128 611.59 200.145 617.594 201.093ZM680.177 228.381L626.858 219.965C620.854 219.017 623.158 230 634.045 231.301C644.932 232.601 681.707 239.878 681.707 239.878C693.086 241.674 687.788 229.583 680.177 228.381ZM513.162 192.265L561.391 200.342L563.936 206.612L516.273 198.035L513.162 192.265ZM566.75 213.433L518.52 205.356L521.632 211.126L569.294 219.703L566.75 213.433ZM577.119 159.408L546.231 154.245L548.002 157.893L578.754 163.423L577.119 159.408ZM549.73 161.818L580.314 166.956L582.052 171.024L551.41 165.478L549.73 161.818ZM584.031 175.44L553.544 170.249L555.294 174.063L585.837 179.369L584.031 175.44ZM451.864 516.429C465.921 524.899 485.499 532.198 498.794 527.02C505.265 524.5 513.248 518.646 521.736 510.989C527.54 507.653 532.82 504.085 536.972 501.279L536.977 501.276L536.982 501.272C538.584 500.19 540.017 499.222 541.247 498.424C544.364 496.404 554.819 486.144 565.627 475.539L565.627 475.539L565.627 475.539C578.878 462.536 592.657 449.015 594.088 449.524C596.422 450.352 598.666 451.467 601.321 452.785L601.321 452.786L601.322 452.786C608.238 456.221 617.942 461.042 639.27 465.796C662.209 480.732 681.226 488.577 697.949 491.579C702.538 492.402 713.597 469.174 706.484 463.306C700.358 458.252 639.267 431.308 612.173 420.288C623.552 420.769 639.92 422.586 657.865 424.577L657.898 424.581L659.744 424.785L661.942 425.029C670.987 426.03 680.435 427.639 689.424 429.17C711.699 432.963 731.156 436.276 734.679 428.681C739.625 418.022 744.464 405.366 742.215 398.949C736.11 390.119 671.389 387.196 630.568 386.792C626.045 386.747 621.168 386.372 616.14 385.985C601.094 384.828 584.684 383.566 572.281 390.728C571.78 391.017 571.287 391.302 570.803 391.581L569.188 392.513L569.185 392.514L569.154 392.532L569.144 392.538L569.118 392.553C542.001 408.192 515.995 426.084 490.266 444.377C490.854 445.45 490.966 445.98 490.966 445.98L490.966 445.98L490.966 445.981C490.966 445.981 468.089 482.103 451.864 516.429ZM779.733 394.097C779.484 393.16 780.062 392.309 781.025 392.195C781.988 392.082 782.97 392.749 783.22 393.686L786.134 404.638C786.384 405.575 785.805 406.426 784.842 406.54C783.879 406.653 782.897 405.985 782.647 405.049L779.733 394.097ZM769.527 398.267C769.278 397.33 769.856 396.479 770.819 396.365C771.782 396.252 772.765 396.919 773.014 397.856L775.928 408.808C776.178 409.745 775.599 410.596 774.636 410.71C773.674 410.823 772.691 410.156 772.442 409.219L769.527 398.267ZM401.064 249.888C392.07 251.1 364.616 272.951 372.875 289.787C370.189 293.465 368.517 298.712 372.068 304.443C375.433 309.875 379.744 312.711 383.326 315.068C386.891 317.414 389.734 319.285 390.204 322.767C390.957 328.353 391.161 337.118 390.204 337.659C394.245 337.836 418.953 332.291 424.304 324.53C434.815 309.287 428.582 304.015 424.114 300.235C423.461 299.682 422.846 299.162 422.326 298.647C426.327 299.201 429.933 299.492 432.498 298.586C435.543 297.511 434.325 293.387 433.145 289.393C431.947 285.337 430.788 281.415 434.176 280.958C441.837 279.926 442.235 277.378 443.165 271.421L443.165 271.418L443.167 271.408L443.168 271.4C443.211 271.126 443.254 270.846 443.3 270.557C443.644 268.391 443.753 265.842 443.864 263.247V263.247C444.09 257.953 444.324 252.468 446.581 249.647C442.745 250.343 434.498 252.24 432.199 254.265C433.75 251.198 439.81 244.665 445.478 241.467C436.693 241.222 417.964 246.056 411.191 251.47C411.462 251.14 411.797 250.755 412.174 250.32C414.894 247.188 419.828 241.508 419.028 235.576C415.464 240.57 409.245 248.785 401.064 249.888ZM491.557 387.574C491.588 387.567 491.588 387.567 491.588 387.567L491.588 387.566L491.587 387.563L491.585 387.553L491.576 387.513L491.557 387.422L491.543 387.36C491.513 387.225 491.468 387.027 491.408 386.77C491.286 386.258 491.101 385.515 490.847 384.588C490.337 382.733 489.548 380.141 488.428 377.187C486.19 371.286 482.623 363.916 477.311 358.108L476.749 358.622C481.968 364.329 485.493 371.598 487.715 377.458C488.825 380.385 489.607 382.953 490.112 384.789C490.364 385.707 490.547 386.442 490.666 386.946C490.726 387.198 490.77 387.393 490.799 387.524L490.803 387.539C489.128 389.443 486.039 391.022 482.041 392.308C479.328 393.179 476.226 393.907 472.917 394.511C472.537 392.915 471.734 390.867 470.672 388.577C469.394 385.821 467.724 382.677 465.914 379.485C462.295 373.1 458.107 366.501 455.354 362.372L454.72 362.794C457.465 366.912 461.643 373.496 465.252 379.861C467.056 383.044 468.715 386.167 469.981 388.898C471.034 391.168 471.803 393.143 472.166 394.645C470.733 394.896 469.265 395.125 467.776 395.332C457.336 396.787 445.917 397.201 438.59 397.136L438.583 397.898C445.936 397.963 457.395 397.548 467.881 396.087C469.384 395.877 470.869 395.646 472.319 395.392C472.322 395.415 472.326 395.438 472.33 395.461L472.338 395.518L473.092 395.408C473.085 395.359 473.077 395.309 473.069 395.258C476.396 394.65 479.527 393.916 482.274 393.033C486.396 391.708 489.716 390.029 491.507 387.888L491.625 387.747L491.588 387.567L491.557 387.574ZM477.126 339.878C478.437 341.131 479.584 342.269 480.498 343.192C481.016 343.715 481.458 344.17 481.813 344.538C482.035 344.403 482.256 344.266 482.474 344.126C482.1 343.737 481.616 343.239 481.04 342.657C480.117 341.724 478.958 340.575 477.634 339.309C477.465 339.5 477.296 339.69 477.126 339.878ZM464.769 328.538C462.966 327.297 461.186 326.223 459.514 325.434L459.189 326.123C460.794 326.88 462.508 327.911 464.251 329.106C464.424 328.919 464.597 328.73 464.769 328.538ZM735.098 460.09C734.819 459.376 735.199 458.655 735.946 458.481C736.693 458.306 737.525 458.744 737.803 459.459L741.063 467.812C741.342 468.526 740.963 469.247 740.216 469.421C739.469 469.596 738.637 469.158 738.358 468.443L735.098 460.09ZM727.443 464.272C727.164 463.557 727.544 462.837 728.291 462.662C729.038 462.488 729.869 462.926 730.148 463.64L733.408 471.993C733.687 472.708 733.308 473.428 732.561 473.603C731.814 473.777 730.982 473.339 730.703 472.625L727.443 464.272Z" fill="
#28323F"/>
<path fill-rule="evenodd" clip-rule="evenodd" d="M475.841 488.053C483.603 490.202 493.145 490.765 501.268 487.042C506.604 484.597 513.527 478.351 521.198 470.399C527.263 464.112 533.828 456.723 540.485 449.231L540.486 449.231L540.489 449.226C542.266 447.227 544.049 445.22 545.831 443.225C554.297 433.745 562.737 424.526 570.344 417.568C574.147 414.089 577.734 411.184 581.003 409.096C584.279 407.004 587.203 405.755 589.687 405.544C597.893 404.845 622.753 405.909 650.899 407.553C679.027 409.196 710.392 411.416 731.577 413.024C731.787 413.04 731.97 412.882 731.986 412.673C732.002 412.463 731.845 412.28 731.635 412.264C710.447 410.657 679.077 408.436 650.943 406.792C622.828 405.15 597.898 404.08 589.623 404.785C586.956 405.012 583.908 406.338 580.593 408.454C577.272 410.575 573.649 413.512 569.83 417.006C562.191 423.993 553.727 433.239 545.263 442.717C543.476 444.718 541.69 446.728 539.912 448.73L539.91 448.732L539.91 448.732C533.254 456.223 526.703 463.596 520.65 469.87C512.966 477.836 506.136 483.973 500.951 486.35C493.1 489.948 483.828 489.446 476.197 487.361C476.079 487.592 475.96 487.823 475.841 488.053Z" fill="#F1F7FF"/>
<path fill-rule="evenodd" clip-rule="evenodd" d="M486.514 461.819C489.332 462.812 492.894 464.476 496.074 466.813C500.035 469.723 503.35 473.635 503.973 478.541C504 478.75 504.191 478.898 504.399 478.871C504.608 478.845 504.756 478.654 504.729 478.445C504.069 473.244 500.565 469.168 496.525 466.199C493.269 463.807 489.63 462.107 486.746 461.094C486.67 461.334 486.592 461.576 486.514 461.819Z" fill="#F1F7FF"/>
<path fill-rule="evenodd" clip-rule="evenodd" d="M521.736 510.988C527.541 507.652 532.821 504.084 536.972 501.279C538.577 500.194 540.014 499.223 541.247 498.424C544.364 496.403 554.82 486.144 565.627 475.539C578.878 462.536 592.657 449.015 594.089 449.523C596.412 450.348 598.616 451.6 601.221 453.08C608.043 456.955 617.613 462.391 639.271 465.796C662.209 480.732 681.226 488.577 697.949 491.579C702.538 492.402 713.597 469.174 706.485 463.306C700.358 458.251 639.268 431.308 612.174 420.288C605.47 420.005 600.497 420.184 597.953 421.065C592.07 423.101 586.367 432.239 583.404 436.987L583.403 436.989L583.401 436.991L583.4 436.993C582.745 438.042 582.224 438.877 581.865 439.372C571.55 456.114 544.782 490.198 521.736 510.988Z" fill="black" fill-opacity="0.4"/>
<path fill-rule="evenodd" clip-rule="evenodd" d="M735.946 458.482C735.199 458.656 734.82 459.377 735.098 460.091L738.358 468.444C738.637 469.159 739.469 469.597 740.216 469.422C740.963 469.248 741.342 468.527 741.064 467.813L737.803 459.46C737.525 458.745 736.693 458.307 735.946 458.482ZM728.291 462.663C727.544 462.838 727.164 463.558 727.443 464.273L730.703 472.626C730.982 473.34 731.814 473.778 732.561 473.604C733.308 473.429 733.687 472.709 733.408 471.994L730.148 463.641C729.869 462.927 729.038 462.489 728.291 462.663Z" fill="black" fill-opacity="0.36"/>
<path d="M759.848 444.703C757.468 446.289 751.915 444.042 749.437 442.72C749.437 445.57 750.304 445.818 756.377 451.396C762.451 456.973 775.961 441.604 777.82 437.762C779.679 433.92 791.826 420.781 798.023 420.781C804.22 420.781 819.961 400.454 820.333 394.753C820.631 390.192 816.47 387.259 814.404 386.598C821.841 400.851 786.992 418.798 781.91 420.781C776.828 422.764 762.823 442.72 759.848 444.703Z" fill="white"/>
<path fill-rule="evenodd" clip-rule="evenodd" d="M842.655 133.521L729.593 160.42L730.908 165.949L843.97 139.05L842.655 133.521ZM758.671 143.124L727.257 150.598L728.572 156.126L759.986 148.653L758.671 143.124ZM731.93 170.241L844.992 143.343L846.307 148.871L733.246 175.77L731.93 170.241ZM768.019 182.411L736.605 189.885L737.92 195.414L769.334 187.94L768.019 182.411ZM738.942 199.708L800.507 185.061L801.822 190.589L740.257 205.236L738.942 199.708ZM775.031 211.878L743.616 219.351L744.932 224.88L776.346 217.406L775.031 211.878ZM745.953 229.174L807.517 214.527L808.832 220.056L747.269 234.703L745.953 229.174ZM782.042 241.344L750.628 248.818L751.943 254.346L783.357 246.872L782.042 241.344ZM752.966 258.639L866.022 231.741L867.338 237.27L754.281 264.167L752.966 258.639ZM868.359 241.564L755.303 268.461L756.618 273.99L869.674 247.093L868.359 241.564ZM310.783 136.259L342.907 139.537L342.33 145.191L310.206 141.913L310.783 136.259ZM418.433 157.391L309.758 146.303L309.182 151.957L417.856 163.044L418.433 157.391ZM308.734 156.347L417.408 167.435L416.831 173.089L308.157 162.001L308.734 156.347ZM338.809 179.712L306.685 176.435L306.108 182.088L338.233 185.366L338.809 179.712ZM305.661 186.479L380.996 194.166L380.419 199.819L305.084 192.133L305.661 186.479ZM335.736 209.846L303.612 206.568L303.035 212.222L335.16 215.499L335.736 209.846ZM302.587 216.611L377.921 224.297L377.344 229.951L302.011 222.264L302.587 216.611ZM332.663 239.977L300.539 236.7L299.962 242.353L332.086 245.631L332.663 239.977Z" fill="white" fill-opacity="0.15"/>
<path fill-rule="evenodd" clip-rule="evenodd" d="M427.288 306.254C427.288 306.254 428.968 313.774 428.135 317.203C427.395 320.245 426.16 322.046 424.176 324.065C420.253 328.057 416.937 328.506 411.915 331.212C409.527 332.499 403.859 334.724 403.859 334.724C403.859 334.724 403.593 338.915 404.679 342.442C419.97 349.183 436.459 341.043 436.459 341.043C436.459 341.043 431.097 327.04 431.097 322.777C435.764 321.323 449.96 317.267 450.594 316.709C454.18 313.556 453.799 312.699 453.014 310.931C451.13 306.69 452.284 302.503 450.001 297.929C451.597 296.919 451.696 293.722 451.696 293.722C451.696 293.722 448.281 289.362 445.067 286.875C443.632 284.162 442.04 281.476 440.342 278.904C439.102 279.905 437.208 280.551 434.176 280.96C430.788 281.417 431.947 285.339 433.145 289.395C434.325 293.389 435.543 297.513 432.498 298.588C431.61 298.901 430.597 299.071 429.486 299.137C427.91 298.554 423.616 291.306 423.616 291.306C423.616 291.306 422.611 290.047 420.679 291.306C415.238 294.851 425.896 302.198 427.288 306.254Z" fill="#FFBD5A"/>
<path fill-rule="evenodd" clip-rule="evenodd" d="M541.831 240.184L538.736 239.663L541.699 236.954L544.793 237.475L541.831 240.184ZM553.235 242.308L547.047 241.266L550.982 238.517L557.17 239.559L553.235 242.308ZM565.251 244.406L559.063 243.364L563.359 240.601L569.548 241.643L565.251 244.406ZM577.629 246.49L571.44 245.448L575.736 242.685L581.925 243.727L577.629 246.49ZM590.607 248.549L584.419 247.507L588.113 244.769L594.302 245.811L590.607 248.549ZM603.225 250.624L597.037 249.582L600.49 246.853L606.679 247.895L603.225 250.624ZM615.241 252.722L609.053 251.68L612.867 248.937L619.056 249.979L615.241 252.722ZM625.392 254.631L622.297 254.11L625.244 251.021L628.339 251.541C633.033 252.332 628.897 255.222 625.392 254.631Z" fill="#2E69FF"/>
<path fill-rule="evenodd" clip-rule="evenodd" d="M534.053 247.694L530.959 247.173L533.922 244.464L537.016 244.985L534.053 247.694ZM545.458 249.817L539.27 248.775L543.205 246.027L549.393 247.069L545.458 249.817ZM557.474 251.916L551.286 250.874L555.582 248.111L561.77 249.153L557.474 251.916ZM569.851 254L563.663 252.958L567.959 250.195L574.147 251.237L569.851 254ZM582.83 256.059L576.642 255.017L580.336 252.279L586.524 253.321L582.83 256.059ZM595.448 258.133L589.259 257.091L592.713 254.362L598.901 255.404L595.448 258.133ZM607.464 260.232L601.275 259.19L605.09 256.446L611.279 257.488L607.464 260.232ZM617.614 262.141L614.52 261.62L617.467 258.53L620.561 259.051C625.256 259.842 621.12 262.731 617.614 262.141Z" fill="#2E69FF"/>
<path fill-rule="evenodd" clip-rule="evenodd" d="M526.275 255.202L523.181 254.681L526.143 251.972L529.238 252.493L526.275 255.202ZM537.68 257.325L531.491 256.283L535.426 253.535L541.615 254.577L537.68 257.325ZM549.696 259.424L543.507 258.382L547.803 255.619L553.992 256.661L549.696 259.424ZM562.073 261.508L555.884 260.466L560.18 257.703L566.369 258.744L562.073 261.508ZM575.052 263.567L568.863 262.525L572.557 259.786L578.746 260.828L575.052 263.567ZM587.67 265.641L581.481 264.599L584.935 261.87L591.123 262.912L587.67 265.641ZM599.686 267.74L593.497 266.698L597.312 263.954L603.5 264.996L599.686 267.74ZM609.836 269.649L606.742 269.128L609.689 266.038L612.783 266.559C617.477 267.349 613.342 270.239 609.836 269.649Z" fill="#2E69FF"/>
<path fill-rule="evenodd" clip-rule="evenodd" d="M518.497 262.711L515.403 262.191L518.366 259.482L521.46 260.003L518.497 262.711ZM529.902 264.835L523.713 263.793L527.648 261.045L533.837 262.086L529.902 264.835ZM541.918 266.934L535.729 265.892L540.025 263.128L546.214 264.17L541.918 266.934ZM554.295 269.017L548.106 267.975L552.403 265.212L558.591 266.254L554.295 269.017ZM567.274 271.077L561.085 270.035L564.78 267.296L570.968 268.338L567.274 271.077ZM579.892 273.151L573.703 272.109L577.157 269.38L583.345 270.422L579.892 273.151ZM591.908 275.249L585.719 274.208L589.534 271.464L595.722 272.506L591.908 275.249ZM602.058 277.159L598.964 276.638L601.911 273.548L605.005 274.069C609.699 274.859 605.564 277.749 602.058 277.159Z" fill="#2E69FF"/>
<path d="M598.947 275.91C596.269 267.39 591.178 267.662 591.178 267.662L578.615 268.346C578.615 268.346 569.77 274.774 554.899 286.236C555.967 288.504 556.546 292.658 561.663 297.246C562.946 298.397 570.184 304.682 586.133 292.285C602.38 292.844 602.814 288.209 598.947 275.91Z" fill="#FFBD5A"/>
<path d="M533.445 256.642C531.404 250.15 527.525 250.357 527.525 250.357L517.952 250.878C517.952 250.878 507.661 254.384 496.592 266.914C497.405 268.642 501.135 269.404 505.034 272.901C506.012 273.778 509.85 273.978 522.003 264.532C534.384 264.957 536.392 266.015 533.445 256.642Z" fill="#FFBD5A"/>
<path d="M518.634 277.62C515.046 279.407 507.816 277.525 504.649 276.361L506.017 268.255L516.885 263.643C516.889 265.448 517.316 269.216 518.984 269.841C521.07 270.623 524.123 269.642 526.118 271.165C528.113 272.688 523.12 275.386 518.634 277.62Z" fill="#FFBD5A"/>
</svg>
